<?xml version="1.0" standalone="no"?>
<!DOCTYPE svg PUBLIC "-//W3C//DTD SVG 1.1//EN" "http://www.w3.org/Graphics/SVG/1.1/DTD/svg11.dtd" >
<svg xmlns="http://www.w3.org/2000/svg" xmlns:xlink="http://www.w3.org/1999/xlink" version="1.1">
<metadata>
Created by FontForge 20170924 at Mon Dec  7 09:19:00 1998
 By www-data
Copyright 1990-1998 Bitstream Inc.  All rights reserved.
</metadata>
<defs>
<font id="307-CAI978" horiz-adv-x="1024" >
  <font-face 
    font-family="307-CAI978"
    font-weight="700"
    font-stretch="semi-condensed"
    units-per-em="2048"
    panose-1="2 11 6 6 2 2 3 2 2 4"
    ascent="1556"
    descent="-492"
    x-height="1071"
    cap-height="1497"
    bbox="-342 -483 2503 2095"
    underline-thickness="106"
    underline-position="-231"
    unicode-range="U+0020-F002"
  />
<missing-glyph horiz-adv-x="1229" 
d="M102 -362v1806h1024v-1806h-1024zM217 -248h795v1577h-795v-1577z" />
    <glyph glyph-name=".notdef" horiz-adv-x="1229" 
d="M102 -362v1806h1024v-1806h-1024zM217 -248h795v1577h-795v-1577z" />
    <glyph glyph-name=".null" horiz-adv-x="0" 
 />
    <glyph glyph-name="nonmarkingreturn" horiz-adv-x="569" 
 />
    <glyph glyph-name="space" unicode=" " horiz-adv-x="569" 
 />
    <glyph glyph-name="exclam" unicode="!" horiz-adv-x="797" 
d="M332 489l-45 1008h223l-45 -1008h-133zM254 121q0 59 42.5 102t100.5 43q60 0 103 -42.5t43 -102.5t-43 -103t-103 -43q-58 0 -100.5 43.5t-42.5 102.5z" />
    <glyph glyph-name="quotedbl" unicode="&#x22;" horiz-adv-x="590" 
d="M496 1434v-553h-119v553h119zM211 1434v-553h-117v553h117z" />
    <glyph glyph-name="numbersign" unicode="#" horiz-adv-x="1575" 
d="M973 862h-264l-95 -272h263zM922 1456l-166 -471h260l168 471h143l-164 -471h307l-43 -123h-311l-94 -272h330l-43 -123h-332l-166 -469h-145l168 469h-265l-168 -469h-143l166 469h-320l43 123h320l96 272h-342l43 123h344l168 471h146z" />
    <glyph glyph-name="dollar" unicode="$" horiz-adv-x="1139" 
d="M80 182l94 172q89 -92 174.5 -138t177.5 -52v541q-215 76 -309 176t-94 247q0 161 105 258t298 115v76h111v-78q114 -15 209 -54.5t174 -103.5l-109 -155q-70 71 -137.5 108t-136.5 41v-465q219 -77 316.5 -185t97.5 -273q0 -173 -111.5 -284t-302.5 -128v-268h-111v268
q-137 8 -248.5 53.5t-197.5 128.5zM526 915v426q-111 -7 -174 -57t-63 -131q0 -79 53.5 -133.5t183.5 -104.5zM637 162q108 7 175 73.5t67 165.5q0 88 -60.5 151t-181.5 101v-491z" />
    <glyph glyph-name="percent" unicode="%" horiz-adv-x="1720" 
d="M1073 334q0 -86 61.5 -147.5t147.5 -61.5q87 0 148 61t61 148t-60.5 148t-148.5 61t-148.5 -61t-60.5 -148zM909 334q0 155 109 264t264 109t264 -109t109 -264t-109 -264t-264 -109q-154 0 -263.5 109.5t-109.5 263.5zM449 -39h-152l975 1575h151zM229 1163
q0 -86 61.5 -147.5t147.5 -61.5q87 0 148 61.5t61 147.5q0 88 -60.5 148.5t-148.5 60.5q-87 0 -148 -60.5t-61 -148.5zM68 1163q0 156 107.5 264.5t262.5 108.5t264 -109t109 -264t-108.5 -262.5t-264.5 -107.5q-153 0 -261.5 108.5t-108.5 261.5z" />
    <glyph glyph-name="ampersand" unicode="&#x26;" horiz-adv-x="1479" 
d="M967 141q-102 -89 -206 -134.5t-208 -45.5q-189 0 -313.5 130t-124.5 327q0 149 84.5 275t242.5 210q-47 94 -68.5 168.5t-21.5 140.5q0 145 91.5 234.5t238.5 89.5q141 0 228 -81t87 -212q0 -110 -81.5 -204.5t-237.5 -164.5q101 -158 176.5 -264.5t132.5 -171.5
q45 56 87.5 133.5t88.5 186.5l187 -78q-42 -98 -103 -193.5t-141 -189.5q65 -72 108 -100.5t84 -28.5q19 0 44.5 9t56.5 26v-201q-29 -17 -60.5 -25t-68.5 -8q-76 0 -152.5 43.5t-150.5 128.5zM610 989q127 43 189.5 108t62.5 152q0 75 -51 125.5t-125 50.5
q-71 0 -117.5 -53t-46.5 -137q0 -45 21.5 -105t66.5 -141zM858 274q-124 157 -210.5 283t-139.5 227q-103 -51 -155 -130.5t-52 -186.5q0 -126 91 -221.5t210 -95.5q58 0 121.5 30.5t134.5 93.5z" />
    <glyph glyph-name="quotesingle" unicode="'" horiz-adv-x="305" 
d="M211 1434v-553h-117v553h117z" />
    <glyph glyph-name="parenleft" unicode="(" horiz-adv-x="682" 
d="M465 -354q-156 257 -232.5 491.5t-76.5 452.5t76.5 452.5t232.5 493.5h180q-156 -259 -232.5 -493.5t-76.5 -452.5t76.5 -452.5t232.5 -491.5h-180z" />
    <glyph glyph-name="parenright" unicode=")" horiz-adv-x="682" 
d="M219 1536q154 -254 230.5 -490t76.5 -456q0 -219 -76 -453t-231 -491h-180q155 257 231 491t76 453q0 220 -76.5 456t-230.5 490h180z" />
    <glyph glyph-name="asterisk" unicode="*" horiz-adv-x="1139" 
d="M567 1036l-168 -309l-149 113l242 254l-342 67l55 174l315 -151l-37 352h170l-37 -352l316 151l57 -174l-342 -67l242 -254l-152 -113z" />
    <glyph glyph-name="plus" unicode="+" horiz-adv-x="1706" 
d="M913 1221v-551h539v-117h-539v-553h-118v553h-541v117h541v551h118z" />
    <glyph glyph-name="comma" unicode="," horiz-adv-x="569" 
d="M12 -356l238 630h172l-238 -630h-172z" />
    <glyph glyph-name="hyphen" unicode="-" horiz-adv-x="682" 
d="M76 469v160h530v-160h-530z" />
    <glyph glyph-name="period" unicode="." horiz-adv-x="569" 
d="M139 121q0 59 43.5 102t102.5 43t101 -42.5t42 -102.5t-42 -103t-101 -43t-102.5 43.5t-43.5 102.5z" />
    <glyph glyph-name="slash" unicode="/" horiz-adv-x="569" 
d="M496 1536h120l-542 -1726h-121z" />
    <glyph glyph-name="zero" unicode="0" horiz-adv-x="1139" 
d="M285 750q0 -314 71 -469.5t213 -155.5q143 0 213 155t70 470q0 316 -69.5 470t-213.5 154q-142 0 -213 -155.5t-71 -468.5zM76 750q0 372 130 579t363 207t362.5 -206.5t129.5 -579.5q0 -374 -130 -581.5t-362 -207.5t-362.5 208t-130.5 581z" />
    <glyph glyph-name="one" unicode="1" horiz-adv-x="1139" 
d="M207 0v180h317v1139h-348v178h549v-1317h307v-180h-825z" />
    <glyph glyph-name="two" unicode="2" horiz-adv-x="1139" 
d="M100 0v25q0 161 59 288.5t203 268.5q36 35 159 133.5t196 173.5q55 56 84.5 119.5t29.5 121.5q0 101 -68 163.5t-177 62.5q-120 0 -197 -58t-133 -190l-164 104q94 172 206 248t271 76q209 0 337 -115t128 -301q0 -81 -28.5 -159.5t-83.5 -147.5q-61 -77 -233 -209
q-51 -39 -77 -59l-7 -6q-265 -212 -275 -359h725v-180h-955z" />
    <glyph glyph-name="three" unicode="3" horiz-adv-x="1139" 
d="M10 86l202 2q139 2 252 44.5t208 127.5q59 54 93 120.5t34 129.5q0 94 -64 155.5t-162 61.5q-37 0 -76.5 -6t-76.5 -19l-101 -32l-55 139l131 61q164 76 245 157.5t81 170.5q0 74 -56 121t-145 47q-88 0 -178.5 -51t-189.5 -156l-115 144q121 122 243 178.5t265 56.5
q170 0 275.5 -87t105.5 -224q0 -103 -67.5 -192t-207.5 -171q174 -29 260 -122.5t86 -252.5q0 -118 -59 -222.5t-174 -190.5q-98 -73 -238.5 -119t-275.5 -47l-236 -2z" />
    <glyph glyph-name="four" unicode="4" horiz-adv-x="1139" 
d="M240 590h467v803zM707 0v410h-625v233l502 854h307v-907h178v-180h-178v-410h-184z" />
    <glyph glyph-name="five" unicode="5" horiz-adv-x="1139" 
d="M78 -2l35 188q77 -27 142 -40t120 -13q202 0 335.5 109t133.5 270q0 136 -84.5 224.5t-212.5 88.5q-64 0 -125 -26t-121 -80h-143l88 778h710v-180h-573l-43 -395q54 34 110.5 50.5t116.5 16.5q214 0 342.5 -131t128.5 -346q0 -245 -188.5 -403t-491.5 -158
q-74 0 -143.5 11.5t-136.5 35.5z" />
    <glyph glyph-name="six" unicode="6" horiz-adv-x="1139" 
d="M319 436q0 -134 79 -214.5t210 -80.5q132 0 212.5 81t80.5 214q0 134 -80.5 214.5t-212.5 80.5q-130 0 -209.5 -80.5t-79.5 -214.5zM338 807q78 53 151.5 78.5t149.5 25.5q95 0 178.5 -34.5t151.5 -102.5q63 -61 97 -149t34 -189q0 -97 -34 -184t-97 -150
q-69 -69 -160 -105t-197 -36q-237 0 -371.5 155t-134.5 431q0 259 102 509t302 480h248q-185 -201 -286 -376.5t-134 -352.5z" />
    <glyph glyph-name="seven" unicode="7" horiz-adv-x="1139" 
d="M258 0q104 338 230 667t274 650h-688v180h950v-29q-190 -413 -318.5 -778.5t-197.5 -689.5h-250z" />
    <glyph glyph-name="eight" unicode="8" horiz-adv-x="1139" 
d="M287 432q0 -132 79 -215.5t203 -83.5q125 0 204 83t79 216q0 135 -78 217t-205 82q-125 0 -203.5 -82.5t-78.5 -216.5zM317 1128q0 -106 70.5 -173.5t181.5 -67.5t180.5 67t69.5 174q0 109 -68.5 175.5t-181.5 66.5q-112 0 -182 -67t-70 -175zM377 811q-132 59 -195 140
t-63 192q0 168 128 280.5t322 112.5t322.5 -112.5t128.5 -280.5q0 -111 -63 -192t-195 -140q152 -60 221.5 -156.5t69.5 -248.5q0 -194 -137.5 -319.5t-346.5 -125.5q-210 0 -346.5 125t-136.5 320q0 152 69.5 248.5t221.5 156.5z" />
    <glyph glyph-name="nine" unicode="9" horiz-adv-x="1139" 
d="M823 1063q0 133 -79 213t-212 80q-132 0 -211 -80t-79 -213q0 -134 79.5 -215.5t210.5 -81.5t211 81.5t80 215.5zM805 692q-79 -54 -153.5 -80t-149.5 -26q-94 0 -177.5 35t-152.5 104q-63 62 -97 149.5t-34 188.5q0 97 34 184t97 150q68 68 159.5 103.5t198.5 35.5
q238 0 372 -154.5t134 -429.5q0 -259 -102 -510.5t-301 -480.5h-250q185 202 287 378.5t135 352.5z" />
    <glyph glyph-name="colon" unicode=":" horiz-adv-x="569" 
d="M139 121q0 59 43.5 102t102.5 43t101 -42.5t42 -102.5t-42 -103t-101 -43t-102.5 43.5t-43.5 102.5zM139 963q0 59 43 101t103 42t101.5 -42t41.5 -101q0 -61 -42 -103.5t-101 -42.5t-102.5 43.5t-43.5 102.5z" />
    <glyph glyph-name="semicolon" unicode=";" horiz-adv-x="569" 
d="M199 963q0 59 42 101t101 42q60 0 102.5 -42t42.5 -101q0 -60 -42.5 -103t-102.5 -43q-58 0 -100.5 43.5t-42.5 102.5zM12 -356l238 630h172l-238 -630h-172z" />
    <glyph glyph-name="less" unicode="&#x3c;" horiz-adv-x="1706" 
d="M1442 1018l-1000 -408l1000 -405v-129l-1178 483v103l1178 483v-127z" />
    <glyph glyph-name="equal" unicode="=" horiz-adv-x="1706" 
d="M1452 477v-117h-1198v117h1198zM1452 860v-117h-1198v117h1198z" />
    <glyph glyph-name="greater" unicode="&#x3e;" horiz-adv-x="1706" 
d="M1442 662v-103l-1178 -483v129l1000 405l-1000 408v127z" />
    <glyph glyph-name="question" unicode="?" 
d="M319 121q0 59 43.5 102t102.5 43q60 0 102.5 -42.5t42.5 -102.5t-42.5 -103t-102.5 -43q-58 0 -102 43.5t-44 102.5zM377 508q0 8 -1 24.5t-1 24.5q0 92 22 174t68 160q24 42 108 152t84 182q0 70 -50.5 115.5t-127.5 45.5q-68 0 -115 -43t-79 -137l-189 74
q51 126 153.5 193t244.5 67q161 0 263.5 -90t102.5 -229q0 -134 -150 -301q-34 -38 -51 -58q-63 -74 -89.5 -144t-26.5 -161q0 -20 0.5 -30.5t0.5 -18.5h-167z" />
    <glyph glyph-name="at" unicode="@" horiz-adv-x="2048" 
d="M1292 844l58 121h110l-141 -568q-6 -24 -9 -44t-3 -36q0 -44 27.5 -67t82.5 -23q45 0 100 24t103 64q89 76 139.5 196.5t50.5 254.5q0 266 -195.5 428t-518.5 162q-168 0 -312.5 -52t-259.5 -153q-140 -122 -211 -282.5t-71 -354.5q0 -173 60.5 -304t186.5 -230
q101 -81 240 -124.5t295 -43.5q172 0 334.5 48.5t296.5 139.5l45 -66q-147 -109 -313 -165t-347 -56q-191 0 -348 46.5t-276 138.5q-153 117 -228 272t-75 352q0 163 50.5 309t149.5 269q146 176 349.5 267t453.5 91q165 0 311 -43.5t248 -124.5q129 -99 195.5 -230
t66.5 -282q0 -169 -62.5 -308.5t-182.5 -236.5q-69 -55 -148.5 -83.5t-163.5 -28.5q-99 0 -148.5 39t-49.5 116q0 3 1 11t1 12q-51 -87 -127 -132.5t-170 -45.5q-153 0 -233.5 85t-80.5 247q0 230 137 389t332 159q91 0 153.5 -39.5t96.5 -117.5zM1202 473l60 242
q-17 90 -72 140t-135 50q-146 0 -244 -131.5t-98 -327.5q0 -110 51 -169.5t145 -59.5q102 0 183.5 70.5t109.5 185.5z" />
    <glyph glyph-name="A" unicode="A" horiz-adv-x="1366" 
d="M1075 0l-102 319h-582l-102 -319h-217l491 1497h238l491 -1497h-217zM444 496h476l-238 784z" />
    <glyph glyph-name="B" unicode="B" horiz-adv-x="1366" 
d="M211 0v1497h465q224 0 342.5 -84t118.5 -244q0 -125 -67 -208t-204 -127v-27q181 -46 269 -148t88 -264q0 -186 -126 -290.5t-352 -104.5h-534zM426 897h244q132 0 199 59.5t67 176.5q0 103 -69 153.5t-212 50.5h-229v-440zM426 180h276q154 0 232 64t78 190
q0 135 -99.5 218t-261.5 83h-225v-555z" />
    <glyph glyph-name="C" unicode="C" horiz-adv-x="1251" 
d="M1106 420q-26 -213 -148 -336t-307 -123q-243 0 -372 203t-129 586q0 382 129 584t372 202q174 0 292.5 -109.5t162.5 -312.5l-203 -47q-24 144 -86.5 214.5t-165.5 70.5q-149 0 -217.5 -144.5t-68.5 -457.5q0 -314 68.5 -458.5t217.5 -144.5q108 0 171 77.5t81 234.5z
" />
    <glyph glyph-name="D" unicode="D" horiz-adv-x="1323" 
d="M182 0v1497h355q331 0 502 -190t171 -557q0 -369 -171.5 -559.5t-501.5 -190.5h-355zM397 184h115q249 0 362 134.5t113 431.5q0 295 -112.5 429t-362.5 134h-115v-1129z" />
    <glyph glyph-name="E" unicode="E" horiz-adv-x="1366" 
d="M236 0v1499h931v-186h-718v-428h520v-185h-520v-514h747v-186h-960z" />
    <glyph glyph-name="F" unicode="F" horiz-adv-x="1186" 
d="M225 0v1497h924v-184h-711v-469h508v-185h-508v-659h-213z" />
    <glyph glyph-name="G" unicode="G" horiz-adv-x="1366" 
d="M1167 -25h-73l-80 150h-41q-71 -87 -146.5 -125.5t-173.5 -38.5q-232 0 -365.5 211t-133.5 584q0 365 142 572.5t390 207.5q153 0 267 -95.5t161 -264.5l-199 -46q-24 103 -86.5 159.5t-150.5 56.5q-152 0 -228.5 -149t-76.5 -443q0 -300 77 -451t230 -151q123 0 206 97
t83 245v14h-287v184h485v-717z" />
    <glyph glyph-name="H" unicode="H" horiz-adv-x="1479" 
d="M256 0v1497h213v-618h543v618h213v-1497h-213v694h-543v-694h-213z" />
    <glyph glyph-name="I" unicode="I" horiz-adv-x="797" 
d="M162 0v141h129v1215h-129v141h473v-141h-129v-1215h129v-141h-473z" />
    <glyph glyph-name="J" unicode="J" 
d="M31 389l205 76v-27q0 -139 47 -210.5t139 -71.5q109 0 156 78.5t47 269.5v993h213v-1038q0 -239 -104.5 -368.5t-295.5 -129.5q-187 0 -297 111.5t-110 302.5v14z" />
    <glyph glyph-name="K" unicode="K" horiz-adv-x="1366" 
d="M485 803l596 694h252l-598 -688l594 -809h-262zM221 0v1497h213v-1497h-213z" />
    <glyph glyph-name="L" unicode="L" horiz-adv-x="1208" 
d="M252 0v1497h213v-1313h686v-184h-899z" />
    <glyph glyph-name="M" unicode="M" horiz-adv-x="1821" 
d="M256 0v1497h319l326 -1194h19l325 1194h318v-1497h-181v1380h-10l-379 -1380h-168l-376 1380h-13v-1380h-180z" />
    <glyph glyph-name="N" unicode="N" horiz-adv-x="1479" 
d="M227 0v1497h285l346 -776q57 -127 106.5 -250.5t92.5 -243.5h14v1270h180v-1497h-276l-375 834q-54 119 -98.5 233.5t-79.5 226.5h-14v-1294h-181z" />
    <glyph glyph-name="O" unicode="O" horiz-adv-x="1251" 
d="M340 750q0 -314 69 -458.5t218 -144.5q148 0 216 143.5t68 459.5q0 315 -68 458.5t-216 143.5q-149 0 -218 -144.5t-69 -457.5zM123 750q0 382 130 584t374 202q243 0 372 -202t129 -584q0 -383 -129 -586t-372 -203q-244 0 -374 203t-130 586z" />
    <glyph glyph-name="P" unicode="P" horiz-adv-x="1276" 
d="M461 1319v-543h149q191 0 281 66t90 205t-90.5 205.5t-280.5 66.5h-149zM248 0v1497h385q275 0 421 -116t146 -334q0 -219 -146 -335t-421 -116h-172v-596h-213z" />
    <glyph glyph-name="Q" unicode="Q" horiz-adv-x="1251" 
d="M797 2q-38 -21 -78.5 -31t-87.5 -10q-252 0 -383 201.5t-131 587.5q0 382 130 584t374 202q243 0 372 -202t129 -584q0 -244 -46 -404t-142 -252q44 -64 92 -92.5t109 -28.5q4 0 13 1t13 1v-210q-8 -2 -16.5 -2.5t-24.5 -0.5q-95 0 -174 58.5t-149 181.5zM704 166
l-141 213l101 86l157 -205q45 75 65.5 189.5t20.5 300.5q0 313 -68.5 457.5t-217.5 144.5q-150 0 -218.5 -144.5t-68.5 -457.5q0 -306 66.5 -452t205.5 -146q26 0 50.5 3.5t47.5 10.5z" />
    <glyph glyph-name="R" unicode="R" horiz-adv-x="1366" 
d="M236 0v1497h387q275 0 420 -107.5t145 -310.5q0 -145 -74 -239.5t-223 -141.5l389 -698h-246l-358 662h-225v-662h-215zM451 1319v-477h149q191 0 281 57.5t90 179.5t-91 181t-280 59h-149z" />
    <glyph glyph-name="S" unicode="S" horiz-adv-x="1251" 
d="M121 303l182 117q73 -145 152.5 -210t183.5 -65q115 0 182.5 65t67.5 175q0 45 -18 88.5t-50 73.5q-65 61 -227 135q-44 20 -66 31q-6 3 -19 9q-190 91 -257 181q-37 50 -56.5 108.5t-19.5 121.5q0 179 119.5 291t312.5 112q157 0 274 -78t197 -237l-172 -109
q-58 127 -128.5 182.5t-170.5 55.5q-104 0 -160.5 -51.5t-56.5 -145.5q0 -32 11 -63t32 -56q50 -62 209 -135q48 -22 74 -35q223 -110 305 -213.5t82 -259.5q0 -195 -129 -312.5t-342 -117.5q-180 0 -306 84.5t-206 257.5z" />
    <glyph glyph-name="T" unicode="T" horiz-adv-x="1114" 
d="M451 0v1313h-437v184h1086v-184h-436v-1313h-213z" />
    <glyph glyph-name="U" unicode="U" horiz-adv-x="1479" 
d="M254 1497h213v-948q0 -204 64.5 -303t197.5 -99q147 0 215 105t68 336v909h190v-1022q0 -233 -130 -373.5t-345 -140.5q-229 0 -351 140t-122 405v991z" />
    <glyph glyph-name="V" unicode="V" horiz-adv-x="1366" 
d="M569 0l-481 1497h211l375 -1241h18l375 1241h211l-483 -1497h-226z" />
    <glyph glyph-name="W" unicode="W" horiz-adv-x="1933" 
d="M481 0l-381 1497h197l235 -942q16 -65 29.5 -141t24.5 -158h18q11 72 21 130t18 89l250 1022h166l239 -942q15 -57 28.5 -134t25.5 -165h18q10 66 20.5 123.5t18.5 95.5l242 1022h182l-375 -1497h-217l-219 877q-12 47 -23 115t-23 161h-22q-4 -64 -15 -133t-30 -148
l-219 -872h-209z" />
    <glyph glyph-name="X" unicode="X" horiz-adv-x="1366" 
d="M92 0l473 774l-467 723h238l256 -399q26 -42 47 -83.5t37 -86.5h22q20 54 89 167q17 29 26 44l215 358h221l-442 -709l512 -788h-256l-295 483q-3 5 -8 13q-46 74 -66 129h-22q-18 -40 -35 -74t-33 -62l-293 -489h-219z" />
    <glyph glyph-name="Y" unicode="Y" horiz-adv-x="1366" 
d="M582 0v586l-504 911h233l371 -719h25l376 719h220l-506 -905v-592h-215z" />
    <glyph glyph-name="Z" unicode="Z" horiz-adv-x="1251" 
d="M127 0v154l717 1153v16q-54 -5 -100.5 -7.5t-90.5 -2.5h-499v184h960v-123l-733 -1175v-18q37 4 75.5 6.5t78.5 2.5h610v-190h-1018z" />
    <glyph glyph-name="bracketleft" unicode="[" horiz-adv-x="797" 
d="M219 -354v1851h490v-94h-310v-1665h310v-92h-490z" />
    <glyph glyph-name="backslash" unicode="\" horiz-adv-x="569" 
d="M-47 1536h121l542 -1726h-120z" />
    <glyph glyph-name="bracketright" unicode="]" horiz-adv-x="797" 
d="M575 1497v-1851h-487v94h309v1665h-309v92h487z" />
    <glyph glyph-name="asciicircum" unicode="^" horiz-adv-x="2048" 
d="M1104 1458l520 -557h-158l-442 438l-442 -438h-160l520 557h162z" />
    <glyph glyph-name="underscore" unicode="_" 
d="M1024 -365v-118h-1024v118h1024z" />
    <glyph glyph-name="grave" unicode="`" 
d="M655 1206h-120l-285 348h201z" />
    <glyph glyph-name="a" unicode="a" 
d="M709 268l-1 285q-204 -8 -314.5 -76t-110.5 -186q0 -82 47 -131t125 -49q53 0 116 39t138 118zM709 145h-23q-93 -98 -160 -134t-149 -36q-125 0 -201 78.5t-76 208.5q0 180 163.5 288t445.5 112v108q0 84 -39.5 124t-122.5 40q-74 0 -150 -25.5t-155 -77.5l-84 138
q107 65 206 96t197 31q169 0 248.5 -67t79.5 -210v-604q0 -45 19 -67.5t59 -22.5q3 0 10 1t10 1v-145h-31q-102 0 -162 39.5t-85 123.5z" />
    <glyph glyph-name="b" unicode="b" 
d="M293 537q0 -181 75 -295.5t189 -114.5q103 0 155 102.5t52 307.5q0 203 -52 305t-155 102q-114 0 -189 -113.5t-75 -293.5zM113 43v1427l180 66v-651h18q80 111 150 161t147 50q155 0 247.5 -151t92.5 -408q0 -258 -92.5 -410t-247.5 -152q-78 0 -148 50.5t-149 164.5
h-18v-215z" />
    <glyph glyph-name="c" unicode="c" horiz-adv-x="909" 
d="M684 784q-20 77 -62.5 113.5t-111.5 36.5q-108 0 -164.5 -101.5t-56.5 -295.5q0 -201 57.5 -300.5t173.5 -99.5q84 0 128.5 49t54.5 150l167 -72q-26 -141 -118.5 -215t-241.5 -74q-194 0 -301 147t-107 415q0 267 107 413t301 146q120 0 205 -60t133 -178z" />
    <glyph glyph-name="d" unicode="d" 
d="M487 127q115 0 190 114.5t75 295.5q0 180 -75 293.5t-190 113.5q-103 0 -154.5 -102t-51.5 -305q0 -205 51.5 -307.5t154.5 -102.5zM752 -25v215h-21q-79 -115 -148 -165t-147 -50q-154 0 -247 152t-93 410q0 257 92.5 408t247.5 151q77 0 146 -49t149 -162h21v585
l180 66v-1493z" />
    <glyph glyph-name="e" unicode="e" horiz-adv-x="909" 
d="M813 111q-68 -70 -147.5 -103t-180.5 -33q-204 0 -315 138.5t-111 394.5q0 266 116 427t304 161q176 0 286 -158t113 -422h-632v-18q0 -186 60 -273.5t188 -87.5q48 0 97.5 21.5t100.5 64.5zM248 643h448q-18 143 -75 217t-150 74q-92 0 -148.5 -73.5t-74.5 -217.5z" />
    <glyph glyph-name="f" unicode="f" horiz-adv-x="653" 
d="M238 0v862h-148v129h148v256q0 136 82 212.5t229 76.5q42 0 76 -8t63 -25v-151q-27 11 -58.5 16.5t-70.5 5.5q-70 0 -105.5 -35t-35.5 -104v-244h198v-129h-198v-862h-180z" />
    <glyph glyph-name="g" unicode="g" 
d="M473 238q114 0 189 102t75 262t-74.5 260.5t-189.5 100.5q-104 0 -155.5 -90.5t-51.5 -270.5q0 -181 52 -272.5t155 -91.5zM918 43q0 -179 -121.5 -289t-321.5 -110q-60 0 -122.5 10.5t-131.5 32.5v188h51q35 -37 80.5 -54.5t106.5 -17.5q135 0 206.5 65t71.5 187v240
h-18q-81 -103 -150.5 -147t-146.5 -44q-155 0 -247.5 134.5t-92.5 363.5q0 228 92.5 362t247.5 134q77 0 147.5 -44t149.5 -143h18v164h181v-1032z" />
    <glyph glyph-name="h" unicode="h" 
d="M152 0v1470l180 66v-664h16q95 112 179 168t157 56q94 0 151.5 -75.5t57.5 -201.5v-819h-180v770q0 98 -23.5 140t-77.5 42q-20 0 -40.5 -6.5t-43.5 -19.5q-23 -15 -46.5 -35t-47.5 -45l-2 -3q-100 -106 -100 -124v-719h-180z" />
    <glyph glyph-name="i" unicode="i" horiz-adv-x="569" 
d="M166 1262v194h235v-194h-235zM195 1071h180v-1071h-180v1071z" />
    <glyph glyph-name="j" unicode="j" horiz-adv-x="569" 
d="M186 1262v194h236v-194h-236zM215 1071h180v-1177q0 -122 -67.5 -186t-196.5 -64q-37 0 -75 5.5t-74 16.5v189l47 -1q9 -24 29.5 -36.5t52.5 -12.5q56 0 80 33t24 111v1122z" />
    <glyph glyph-name="k" unicode="k" 
d="M791 0l-410 549l397 522h197l-381 -522l424 -549h-227zM164 0v1470l182 66v-1536h-182z" />
    <glyph glyph-name="l" unicode="l" horiz-adv-x="569" 
d="M195 0v1470l180 66v-1536h-180z" />
    <glyph glyph-name="m" unicode="m" horiz-adv-x="1593" 
d="M143 0v1028l183 68v-224h16q107 115 194 169.5t164 54.5q85 0 131 -56t52 -168h20q107 115 194 169.5t165 54.5q96 0 141 -67t45 -210v-819h-180v770q0 98 -23.5 140t-77.5 42q-20 0 -40.5 -6.5t-43.5 -19.5q-25 -16 -49.5 -36.5t-46.5 -43.5q-62 -66 -81 -91t-19 -36
v-719h-180v770q0 96 -24.5 139t-78.5 43q-20 0 -39 -6t-43 -20q-25 -16 -49.5 -36.5t-46.5 -43.5q-62 -66 -81 -91t-19 -36v-719h-183z" />
    <glyph glyph-name="n" unicode="n" 
d="M145 0v1028l181 68v-224h18q95 112 179 168t157 56q94 0 151.5 -75.5t57.5 -201.5v-819h-180v770q0 96 -24.5 139t-78.5 43q-20 0 -40.5 -6.5t-43.5 -19.5q-23 -15 -46.5 -35t-47.5 -45l-3 -3q-99 -106 -99 -124v-719h-181z" />
    <glyph glyph-name="o" unicode="o" horiz-adv-x="995" 
d="M90 537q0 266 107.5 412.5t300.5 146.5t299 -146t106 -413q0 -268 -106 -415t-299 -147t-300.5 147.5t-107.5 414.5zM498 934q-109 0 -166.5 -102t-57.5 -295q0 -195 57.5 -297.5t166.5 -102.5q107 0 164 102.5t57 297.5q0 194 -56.5 295.5t-164.5 101.5z" />
    <glyph glyph-name="p" unicode="p" 
d="M307 537q0 -182 74.5 -296t187.5 -114q103 0 155 102.5t52 307.5q0 203 -51.5 305t-155.5 102q-114 0 -188 -113.5t-74 -293.5zM125 -356v1384l182 68v-211h19q80 113 149 162t146 49q155 0 248.5 -151t93.5 -408q0 -258 -93.5 -410t-248.5 -152q-78 0 -147.5 50
t-147.5 165h-19v-546h-182z" />
    <glyph glyph-name="q" unicode="q" 
d="M741 537q0 180 -75 293.5t-189 113.5q-103 0 -155 -102t-52 -305q0 -205 52 -307.5t155 -102.5q114 0 189 114.5t75 295.5zM922 -356h-181v546h-18q-78 -114 -148.5 -164.5t-148.5 -50.5q-155 0 -247.5 152t-92.5 410q0 257 92.5 408t247.5 151q77 0 147.5 -50
t149.5 -161h18v211l181 -68v-1384z" />
    <glyph glyph-name="r" unicode="r" horiz-adv-x="797" 
d="M197 0v1028l180 68v-369h26q84 149 175 242.5t184 126.5v-307q-21 3 -37 4.5t-29 1.5q-78 0 -153.5 -44.5t-165.5 -144.5v-606h-180z" />
    <glyph glyph-name="s" unicode="s" horiz-adv-x="797" 
d="M37 125l98 119q70 -67 131 -98t121 -31q84 0 133 42.5t49 114.5q0 62 -27.5 99t-115.5 82l-141 69q-98 48 -148.5 117.5t-50.5 157.5q0 132 94.5 215.5t245.5 83.5q70 0 137 -22t135 -66l-53 -142q-55 45 -110.5 65.5t-118.5 20.5q-80 0 -123 -32.5t-43 -92.5
q0 -48 26 -81t86 -62l121 -59q140 -68 195 -141t55 -187q0 -137 -98.5 -229.5t-245.5 -92.5q-84 0 -172.5 38t-179.5 112z" />
    <glyph glyph-name="t" unicode="t" horiz-adv-x="682" 
d="M70 864v123h155v238l181 170v-408h182v-123h-182v-598q0 -81 16.5 -109t60.5 -28q47 0 96.5 22.5t100.5 67.5v-180q-63 -34 -114 -50t-97 -16q-127 0 -185.5 72.5t-58.5 228.5v590h-155z" />
    <glyph glyph-name="u" unicode="u" 
d="M891 1071v-1028l-180 -68v224h-17q-94 -112 -178.5 -168t-157.5 -56q-94 0 -151 75.5t-57 201.5v819h180v-770q0 -97 23.5 -139.5t76.5 -42.5q20 0 40.5 6.5t43.5 19.5q26 16 50 36.5t46 43.5q62 66 81.5 91t19.5 36v719h180z" />
    <glyph glyph-name="v" unicode="v" horiz-adv-x="909" 
d="M336 0l-281 1071h193l196 -876h23l195 876h194l-283 -1071h-237z" />
    <glyph glyph-name="w" unicode="w" horiz-adv-x="1366" 
d="M670 895q-8 -107 -22.5 -206.5t-35.5 -190.5l-116 -498h-187l-293 1071h187l151 -641q13 -50 21.5 -112.5t13.5 -142.5l27 -1q7 77 21 158.5t34 167.5l127 571h168l129 -571q20 -86 34 -167.5t21 -158.5l27 1q5 73 13.5 136.5t21.5 118.5l151 641h187l-295 -1071h-187
l-114 498q-23 98 -37.5 197.5t-22.5 199.5h-24z" />
    <glyph glyph-name="x" unicode="x" 
d="M512 420l-240 -420h-206l342 549l-312 522h199l217 -397l217 397h199l-312 -522l342 -549h-208z" />
    <glyph glyph-name="y" unicode="y" horiz-adv-x="909" 
d="M57 -315v188h43q20 -33 44.5 -50.5t52.5 -17.5q52 0 92.5 51.5t105.5 213.5l-332 1001h183l219 -731h20l234 731h184l-330 -999q-72 -222 -158.5 -324t-199.5 -102q-37 0 -76.5 9.5t-81.5 29.5z" />
    <glyph glyph-name="z" unicode="z" horiz-adv-x="909" 
d="M817 0h-713v152l502 757h-479v162h686v-151l-496 -758h500v-162z" />
    <glyph glyph-name="braceleft" unicode="{" 
d="M858 1350q-8 0 -23 1t-22 1q-121 0 -164 -47t-43 -197v-242q0 -166 -43.5 -235.5t-154.5 -100.5q111 -30 154.5 -99.5t43.5 -235.5v-242q0 -149 43.5 -195.5t169.5 -46.5h39v-125h-35q-99 0 -159.5 12t-102.5 40q-55 36 -77.5 100t-22.5 213v244q0 152 -55 213t-189 61
q-7 0 -22 -1t-23 -1v127q8 0 23 -1t22 -1q134 0 189 61.5t55 214.5v244q0 153 22.5 215.5t77.5 97.5q42 28 102 40t160 12h35v-127z" />
    <glyph glyph-name="bar" unicode="|" 
d="M575 1565v-2048h-126v2048h126z" />
    <glyph glyph-name="braceright" unicode="}" 
d="M563 1112v-244q0 -152 55.5 -214t190.5 -62q7 0 22 1t23 1v-127q-8 0 -23 1t-22 1q-135 0 -190.5 -62t-55.5 -214v-242q0 -153 -22 -216.5t-76 -99.5q-39 -26 -97.5 -37.5t-160.5 -11.5h-41v125q8 0 23 -1t22 -1q120 0 163.5 47.5t43.5 198.5v240q0 166 43.5 235.5
t154.5 99.5q-111 31 -154.5 100.5t-43.5 235.5v242q0 149 -44 196.5t-169 47.5h-39v125h35q100 0 161 -12.5t103 -39.5q54 -35 76 -98t22 -215z" />
    <glyph glyph-name="asciitilde" unicode="~" horiz-adv-x="1706" 
d="M1530 627q-101 -72 -197.5 -108t-189.5 -36q-43 0 -90.5 9t-100.5 26q-30 10 -87 31q-202 72 -302 72q-83 0 -173.5 -37.5t-211.5 -122.5v133q105 73 202 109t185 36q56 0 116.5 -12.5t174.5 -52.5q14 -5 44 -16q158 -58 245 -58q84 0 174.5 37t210.5 121v-131z" />
    <glyph glyph-name="Adieresis" unicode="&#xc4;" horiz-adv-x="1366" 
d="M1075 0l-102 319h-582l-102 -319h-217l491 1497h238l491 -1497h-217zM444 496h476l-238 784zM758 1706v209h182v-209h-182zM428 1706v209h182v-209h-182z" />
    <glyph glyph-name="Aring" unicode="&#xc5;" horiz-adv-x="1366" 
d="M547 1843q0 -57 39 -96t96 -39q56 0 95.5 39.5t39.5 95.5q0 55 -40 95t-95 40q-57 0 -96 -39t-39 -96zM428 1843q0 106 74 179t180 73t179 -73t73 -179t-73 -180t-179 -74t-180 74t-74 180zM1075 0l-102 319h-582l-102 -319h-217l491 1497h238l491 -1497h-217zM444 496
h476l-238 784z" />
    <glyph glyph-name="Ccedilla" unicode="&#xc7;" horiz-adv-x="1251" 
d="M1106 420q-26 -213 -148 -336t-307 -123q-243 0 -372 203t-129 586q0 382 129 584t372 202q174 0 292.5 -109.5t162.5 -312.5l-203 -47q-24 144 -86.5 214.5t-165.5 70.5q-149 0 -217.5 -144.5t-68.5 -457.5q0 -314 68.5 -458.5t217.5 -144.5q108 0 171 77.5t81 234.5z
M440 -426v100q78 -18 143.5 -28.5t104.5 -10.5q60 0 89 20.5t29 61.5q0 44 -32 65t-101 21q-20 0 -31.5 -0.5t-21.5 -0.5v198h78v-102h29q109 0 166 -46t57 -135q0 -91 -64.5 -139.5t-185.5 -48.5q-51 0 -117 11.5t-143 33.5z" />
    <glyph glyph-name="Eacute" unicode="&#xc9;" horiz-adv-x="1366" 
d="M236 0v1499h931v-186h-718v-428h520v-185h-520v-514h747v-186h-960zM559 1646l204 348h201l-285 -348h-120z" />
    <glyph glyph-name="Ntilde" unicode="&#xd1;" horiz-adv-x="1479" 
d="M227 0v1497h285l346 -776q57 -127 106.5 -250.5t92.5 -243.5h14v1270h180v-1497h-276l-375 834q-54 119 -98.5 233.5t-79.5 226.5h-14v-1294h-181zM1032 1925q-20 -102 -70.5 -155.5t-126.5 -53.5q-14 0 -30.5 2.5t-34.5 7.5l-97 27q-18 5 -29.5 7.5t-19.5 2.5
q-30 0 -53 -17.5t-37 -52.5h-88q18 99 68 152t125 53q14 0 29 -2.5t30 -7.5l98 -27q23 -6 34 -8t20 -2q33 0 56.5 18.5t37.5 55.5h88z" />
    <glyph glyph-name="Odieresis" unicode="&#xd6;" horiz-adv-x="1251" 
d="M340 750q0 -314 69 -458.5t218 -144.5q148 0 216 143.5t68 459.5q0 315 -68 458.5t-216 143.5q-149 0 -218 -144.5t-69 -457.5zM123 750q0 382 130 584t374 202q243 0 372 -202t129 -584q0 -383 -129 -586t-372 -203q-244 0 -374 203t-130 586zM701 1706v209h182v-209
h-182zM371 1706v209h182v-209h-182z" />
    <glyph glyph-name="Udieresis" unicode="&#xdc;" horiz-adv-x="1479" 
d="M254 1497h213v-948q0 -204 64.5 -303t197.5 -99q147 0 215 105t68 336v909h190v-1022q0 -233 -130 -373.5t-345 -140.5q-229 0 -351 140t-122 405v991zM813 1706v209h182v-209h-182zM483 1706v209h182v-209h-182z" />
    <glyph glyph-name="aacute" unicode="&#xe1;" 
d="M709 268l-1 285q-204 -8 -314.5 -76t-110.5 -186q0 -82 47 -131t125 -49q53 0 116 39t138 118zM709 145h-23q-93 -98 -160 -134t-149 -36q-125 0 -201 78.5t-76 208.5q0 180 163.5 288t445.5 112v108q0 84 -39.5 124t-122.5 40q-74 0 -150 -25.5t-155 -77.5l-84 138
q107 65 206 96t197 31q169 0 248.5 -67t79.5 -210v-604q0 -45 19 -67.5t59 -22.5q3 0 10 1t10 1v-145h-31q-102 0 -162 39.5t-85 123.5zM412 1206l204 348h201l-285 -348h-120z" />
    <glyph glyph-name="agrave" unicode="&#xe0;" 
d="M709 268l-1 285q-204 -8 -314.5 -76t-110.5 -186q0 -82 47 -131t125 -49q53 0 116 39t138 118zM709 145h-23q-93 -98 -160 -134t-149 -36q-125 0 -201 78.5t-76 208.5q0 180 163.5 288t445.5 112v108q0 84 -39.5 124t-122.5 40q-74 0 -150 -25.5t-155 -77.5l-84 138
q107 65 206 96t197 31q169 0 248.5 -67t79.5 -210v-604q0 -45 19 -67.5t59 -22.5q3 0 10 1t10 1v-145h-31q-102 0 -162 39.5t-85 123.5zM698 1206h-120l-285 348h201z" />
    <glyph glyph-name="acircumflex" unicode="&#xe2;" 
d="M709 268l-1 285q-204 -8 -314.5 -76t-110.5 -186q0 -82 47 -131t125 -49q53 0 116 39t138 118zM709 145h-23q-93 -98 -160 -134t-149 -36q-125 0 -201 78.5t-76 208.5q0 180 163.5 288t445.5 112v108q0 84 -39.5 124t-122.5 40q-74 0 -150 -25.5t-155 -77.5l-84 138
q107 65 206 96t197 31q169 0 248.5 -67t79.5 -210v-604q0 -45 19 -67.5t59 -22.5q3 0 10 1t10 1v-145h-31q-102 0 -162 39.5t-85 123.5zM260 1206l197 348h196l197 -348h-123l-172 228l-174 -228h-121z" />
    <glyph glyph-name="adieresis" unicode="&#xe4;" 
d="M709 268l-1 285q-204 -8 -314.5 -76t-110.5 -186q0 -82 47 -131t125 -49q53 0 116 39t138 118zM709 145h-23q-93 -98 -160 -134t-149 -36q-125 0 -201 78.5t-76 208.5q0 180 163.5 288t445.5 112v108q0 84 -39.5 124t-122.5 40q-74 0 -150 -25.5t-155 -77.5l-84 138
q107 65 206 96t197 31q169 0 248.5 -67t79.5 -210v-604q0 -45 19 -67.5t59 -22.5q3 0 10 1t10 1v-145h-31q-102 0 -162 39.5t-85 123.5zM629 1266v209h182v-209h-182zM299 1266v209h182v-209h-182z" />
    <glyph glyph-name="atilde" unicode="&#xe3;" 
d="M709 268l-1 285q-204 -8 -314.5 -76t-110.5 -186q0 -82 47 -131t125 -49q53 0 116 39t138 118zM709 145h-23q-93 -98 -160 -134t-149 -36q-125 0 -201 78.5t-76 208.5q0 180 163.5 288t445.5 112v108q0 84 -39.5 124t-122.5 40q-74 0 -150 -25.5t-155 -77.5l-84 138
q107 65 206 96t197 31q169 0 248.5 -67t79.5 -210v-604q0 -45 19 -67.5t59 -22.5q3 0 10 1t10 1v-145h-31q-102 0 -162 39.5t-85 123.5zM848 1485q-20 -102 -70.5 -155.5t-126.5 -53.5q-14 0 -30.5 2.5t-34.5 7.5l-97 27q-18 5 -29.5 7.5t-19.5 2.5q-30 0 -53 -17.5
t-37 -52.5h-88q18 99 68 152t125 53q14 0 29 -2.5t30 -7.5l98 -27q23 -6 34 -8t20 -2q33 0 56.5 18.5t37.5 55.5h88z" />
    <glyph glyph-name="aring" unicode="&#xe5;" 
d="M416 1440q0 -57 39 -96t96 -39q56 0 95.5 39t39.5 96q0 55 -40 95t-95 40q-57 0 -96 -39t-39 -96zM297 1440q0 105 74 178.5t180 73.5t179 -73t73 -179t-73 -179t-179 -73t-180 73t-74 179zM709 268l-1 285q-204 -8 -314.5 -76t-110.5 -186q0 -82 47 -131t125 -49
q53 0 116 39t138 118zM709 145h-25q-91 -97 -158 -133.5t-149 -36.5q-125 0 -201 78.5t-76 208.5q0 180 163.5 288t445.5 112v108q0 84 -39.5 124t-122.5 40q-74 0 -150 -25.5t-155 -77.5l-84 138q107 65 206 96t197 31q169 0 248.5 -67t79.5 -210v-604q0 -45 19 -67.5
t59 -22.5q3 0 10 1t10 1v-145h-31q-102 0 -162 39.5t-85 123.5z" />
    <glyph glyph-name="ccedilla" unicode="&#xe7;" horiz-adv-x="909" 
d="M684 784q-20 77 -62.5 113.5t-111.5 36.5q-108 0 -164.5 -101.5t-56.5 -295.5q0 -201 57.5 -300.5t173.5 -99.5q84 0 128.5 49t54.5 150l167 -72q-26 -141 -118.5 -215t-241.5 -74q-194 0 -301 147t-107 415q0 267 107 413t301 146q120 0 205 -60t133 -178zM299 -426v100
q78 -18 143.5 -28.5t104.5 -10.5q60 0 89 20.5t29 61.5q0 44 -32 65t-101 21q-20 0 -31.5 -0.5t-21.5 -0.5v198h78v-102h29q109 0 166 -46t57 -135q0 -91 -64.5 -139.5t-185.5 -48.5q-51 0 -117 11.5t-143 33.5z" />
    <glyph glyph-name="eacute" unicode="&#xe9;" horiz-adv-x="909" 
d="M813 111q-68 -70 -147.5 -103t-180.5 -33q-204 0 -315 138.5t-111 394.5q0 266 116 427t304 161q176 0 286 -158t113 -422h-632v-18q0 -186 60 -273.5t188 -87.5q48 0 97.5 21.5t100.5 64.5zM248 643h448q-18 143 -75 217t-150 74q-92 0 -148.5 -73.5t-74.5 -217.5z
M330 1206l204 348h201l-285 -348h-120z" />
    <glyph glyph-name="egrave" unicode="&#xe8;" horiz-adv-x="909" 
d="M813 111q-68 -70 -147.5 -103t-180.5 -33q-204 0 -315 138.5t-111 394.5q0 266 116 427t304 161q176 0 286 -158t113 -422h-632v-18q0 -186 60 -273.5t188 -87.5q48 0 97.5 21.5t100.5 64.5zM248 643h448q-18 143 -75 217t-150 74q-92 0 -148.5 -73.5t-74.5 -217.5z
M616 1206h-120l-285 348h201z" />
    <glyph glyph-name="ecircumflex" unicode="&#xea;" horiz-adv-x="909" 
d="M813 111q-68 -70 -147.5 -103t-180.5 -33q-204 0 -315 138.5t-111 394.5q0 266 116 427t304 161q176 0 286 -158t113 -422h-632v-18q0 -186 60 -273.5t188 -87.5q48 0 97.5 21.5t100.5 64.5zM248 643h448q-18 143 -75 217t-150 74q-92 0 -148.5 -73.5t-74.5 -217.5z
M178 1206l197 348h196l197 -348h-123l-172 228l-174 -228h-121z" />
    <glyph glyph-name="edieresis" unicode="&#xeb;" horiz-adv-x="909" 
d="M813 111q-68 -70 -147.5 -103t-180.5 -33q-204 0 -315 138.5t-111 394.5q0 266 116 427t304 161q176 0 286 -158t113 -422h-632v-18q0 -186 60 -273.5t188 -87.5q48 0 97.5 21.5t100.5 64.5zM248 643h448q-18 143 -75 217t-150 74q-92 0 -148.5 -73.5t-74.5 -217.5z
M547 1266v209h182v-209h-182zM217 1266v209h182v-209h-182z" />
    <glyph glyph-name="iacute" unicode="&#xed;" horiz-adv-x="569" 
d="M195 1071h180v-1071h-180v1071zM142 1206l204 348h201l-285 -348h-120z" />
    <glyph glyph-name="igrave" unicode="&#xec;" horiz-adv-x="569" 
d="M195 1071h180v-1071h-180v1071zM428 1206h-120l-285 348h201z" />
    <glyph glyph-name="icircumflex" unicode="&#xee;" horiz-adv-x="569" 
d="M195 1071h180v-1071h-180v1071zM-10 1206l197 348h196l197 -348h-123l-172 228l-174 -228h-121z" />
    <glyph glyph-name="idieresis" unicode="&#xef;" horiz-adv-x="569" 
d="M195 1071h180v-1071h-180v1071zM359 1266v209h182v-209h-182zM29 1266v209h182v-209h-182z" />
    <glyph glyph-name="ntilde" unicode="&#xf1;" 
d="M145 0v1028l181 68v-224h18q95 112 179 168t157 56q94 0 151.5 -75.5t57.5 -201.5v-819h-180v770q0 96 -24.5 139t-78.5 43q-20 0 -40.5 -6.5t-43.5 -19.5q-23 -15 -46.5 -35t-47.5 -45l-3 -3q-99 -106 -99 -124v-719h-181zM805 1485q-20 -102 -70.5 -155.5t-126.5 -53.5
q-14 0 -30.5 2.5t-34.5 7.5l-97 27q-18 5 -29.5 7.5t-19.5 2.5q-30 0 -53 -17.5t-37 -52.5h-88q18 99 68 152t125 53q14 0 29 -2.5t30 -7.5l98 -27q23 -6 34 -8t20 -2q33 0 56.5 18.5t37.5 55.5h88z" />
    <glyph glyph-name="oacute" unicode="&#xf3;" horiz-adv-x="995" 
d="M90 537q0 266 107.5 412.5t300.5 146.5t299 -146t106 -413q0 -268 -106 -415t-299 -147t-300.5 147.5t-107.5 414.5zM498 934q-109 0 -166.5 -102t-57.5 -295q0 -195 57.5 -297.5t166.5 -102.5q107 0 164 102.5t57 297.5q0 194 -56.5 295.5t-164.5 101.5zM355 1206
l204 348h201l-285 -348h-120z" />
    <glyph glyph-name="ograve" unicode="&#xf2;" horiz-adv-x="995" 
d="M90 537q0 266 107.5 412.5t300.5 146.5t299 -146t106 -413q0 -268 -106 -415t-299 -147t-300.5 147.5t-107.5 414.5zM498 934q-109 0 -166.5 -102t-57.5 -295q0 -195 57.5 -297.5t166.5 -102.5q107 0 164 102.5t57 297.5q0 194 -56.5 295.5t-164.5 101.5zM641 1206h-120
l-285 348h201z" />
    <glyph glyph-name="ocircumflex" unicode="&#xf4;" horiz-adv-x="995" 
d="M90 537q0 266 107.5 412.5t300.5 146.5t299 -146t106 -413q0 -268 -106 -415t-299 -147t-300.5 147.5t-107.5 414.5zM498 934q-109 0 -166.5 -102t-57.5 -295q0 -195 57.5 -297.5t166.5 -102.5q107 0 164 102.5t57 297.5q0 194 -56.5 295.5t-164.5 101.5zM203 1206
l197 348h196l197 -348h-123l-172 228l-174 -228h-121z" />
    <glyph glyph-name="odieresis" unicode="&#xf6;" horiz-adv-x="995" 
d="M90 537q0 266 107.5 412.5t300.5 146.5t299 -146t106 -413q0 -268 -106 -415t-299 -147t-300.5 147.5t-107.5 414.5zM498 934q-109 0 -166.5 -102t-57.5 -295q0 -195 57.5 -297.5t166.5 -102.5q107 0 164 102.5t57 297.5q0 194 -56.5 295.5t-164.5 101.5zM572 1266v209
h182v-209h-182zM242 1266v209h182v-209h-182z" />
    <glyph glyph-name="otilde" unicode="&#xf5;" horiz-adv-x="995" 
d="M90 537q0 266 107.5 412.5t300.5 146.5t299 -146t106 -413q0 -268 -106 -415t-299 -147t-300.5 147.5t-107.5 414.5zM498 934q-109 0 -166.5 -102t-57.5 -295q0 -195 57.5 -297.5t166.5 -102.5q107 0 164 102.5t57 297.5q0 194 -56.5 295.5t-164.5 101.5zM791 1485
q-20 -102 -70.5 -155.5t-126.5 -53.5q-14 0 -30.5 2.5t-34.5 7.5l-97 27q-18 5 -29.5 7.5t-19.5 2.5q-30 0 -53 -17.5t-37 -52.5h-88q18 99 68 152t125 53q14 0 29 -2.5t30 -7.5l98 -27q23 -6 34 -8t20 -2q33 0 56.5 18.5t37.5 55.5h88z" />
    <glyph glyph-name="uacute" unicode="&#xfa;" 
d="M891 1071v-1028l-180 -68v224h-17q-94 -112 -178.5 -168t-157.5 -56q-94 0 -151 75.5t-57 201.5v819h180v-770q0 -97 23.5 -139.5t76.5 -42.5q20 0 40.5 6.5t43.5 19.5q26 16 50 36.5t46 43.5q62 66 81.5 91t19.5 36v719h180zM369 1206l204 348h201l-285 -348h-120z" />
    <glyph glyph-name="ugrave" unicode="&#xf9;" 
d="M891 1071v-1028l-180 -68v224h-17q-94 -112 -178.5 -168t-157.5 -56q-94 0 -151 75.5t-57 201.5v819h180v-770q0 -97 23.5 -139.5t76.5 -42.5q20 0 40.5 6.5t43.5 19.5q26 16 50 36.5t46 43.5q62 66 81.5 91t19.5 36v719h180zM655 1206h-120l-285 348h201z" />
    <glyph glyph-name="ucircumflex" unicode="&#xfb;" 
d="M891 1071v-1028l-180 -68v224h-17q-94 -112 -178.5 -168t-157.5 -56q-94 0 -151 75.5t-57 201.5v819h180v-770q0 -97 23.5 -139.5t76.5 -42.5q20 0 40.5 6.5t43.5 19.5q26 16 50 36.5t46 43.5q62 66 81.5 91t19.5 36v719h180zM217 1206l197 348h196l197 -348h-123
l-172 228l-174 -228h-121z" />
    <glyph glyph-name="udieresis" unicode="&#xfc;" 
d="M891 1071v-1028l-180 -68v224h-17q-94 -112 -178.5 -168t-157.5 -56q-94 0 -151 75.5t-57 201.5v819h180v-770q0 -97 23.5 -139.5t76.5 -42.5q20 0 40.5 6.5t43.5 19.5q26 16 50 36.5t46 43.5q62 66 81.5 91t19.5 36v719h180zM586 1266v209h182v-209h-182zM256 1266v209
h182v-209h-182z" />
    <glyph glyph-name="dagger" unicode="&#x2020;" horiz-adv-x="1139" 
d="M520 -75q-5 243 -20 418t-41 306q24 97 39 185.5t22 170.5l-327 -61v197l327 -62l-61 418h215l-62 -418l328 62v-197l-328 64q13 -106 28 -193t34 -166q-22 -97 -36 -258t-26 -467z" />
    <glyph glyph-name="degree" unicode="&#xb0;" horiz-adv-x="674" 
d="M539 1171q0 84 -58.5 142.5t-142.5 58.5t-143.5 -58.5t-59.5 -142.5t59.5 -143t143.5 -59t142.5 59t58.5 143zM338 1454q117 0 200 -83t83 -200q0 -116 -83.5 -199t-201.5 -83t-199.5 82t-81.5 200q0 119 82.5 201t200.5 82z" />
    <glyph glyph-name="cent" unicode="&#xa2;" horiz-adv-x="1139" 
d="M717 913q-19 11 -42.5 16t-58.5 5q-119 0 -183 -102.5t-64 -294.5q0 -116 17.5 -191t53.5 -115zM809 785q-2 9 -7 22t-11 26l-273 -673q27 -11 55.5 -17t57.5 -6q89 0 140 49.5t67 149.5l161 -72q-27 -140 -126 -214.5t-259 -74.5q-41 0 -82.5 8t-80.5 23l-105 -274h-108
l129 321q-92 69 -138.5 190t-46.5 294q0 266 113.5 412.5t318.5 146.5q48 0 89 -7.5t75 -21.5l96 242h109l-121 -295q37 -29 64.5 -67t48.5 -89z" />
    <glyph glyph-name="sterling" unicode="&#xa3;" horiz-adv-x="1139" 
d="M84 -41v227q118 30 168.5 105t50.5 221q0 44 -4.5 86t-14.5 82h-251v141h227q-21 92 -31 155.5t-10 104.5q0 214 112 334.5t310 120.5q94 0 181 -31t175 -96l-106 -180q-68 79 -127 112t-131 33q-100 0 -160.5 -72t-60.5 -192q0 -46 13.5 -118t41.5 -171h317v-141h-297
q5 -36 7 -69t2 -64q0 -75 -15.5 -146t-46.5 -141q92 -59 164.5 -88t128.5 -29q91 0 145.5 58.5t59.5 160.5h125v-14q0 -186 -81.5 -286.5t-230.5 -100.5q-79 0 -166.5 35t-224.5 125q-60 -62 -127 -102t-143 -60z" />
    <glyph glyph-name="section" unicode="&#xa7;" horiz-adv-x="1139" 
d="M244 16l127 93q51 -62 92 -87.5t86 -25.5q56 0 88.5 30t32.5 83q0 80 -162 247l-35 35q-15 16 -45 47q-252 262 -252 385q0 95 54.5 155t162.5 85q-55 65 -80.5 119.5t-25.5 105.5q0 108 81.5 178t209.5 70q86 0 157 -38.5t133 -119.5l-125 -94q-47 54 -86.5 78t-78.5 24
q-47 0 -79 -30t-32 -74q0 -61 167 -228q36 -37 56 -57q14 -14 42 -41q229 -230 229 -374q0 -93 -60.5 -153t-165.5 -73q57 -63 85 -125t28 -127q0 -114 -82.5 -188t-212.5 -74q-98 0 -173.5 42.5t-135.5 131.5zM344 846q0 -58 106 -168l5 -4q10 -11 28 -31
q149 -158 215 -158q38 0 62 26t24 67q0 54 -101 163l-3 2q-18 20 -51 56q-123 137 -193 137q-38 0 -65 -26.5t-27 -63.5z" />
    <glyph glyph-name="bullet" unicode="&#x2022;" horiz-adv-x="1208" 
d="M307 762q0 123 87 209t210 86q122 0 208.5 -86.5t86.5 -208.5t-87.5 -209.5t-209.5 -87.5q-123 0 -209 87t-86 210z" />
    <glyph glyph-name="paragraph" unicode="&#xb6;" 
d="M948 1401h-125v-1401h-94v1401h-182v-1401h-96v782q-173 8 -274 102.5t-101 245.5q0 157 107.5 253t285.5 96h479v-78z" />
    <glyph glyph-name="germandbls" unicode="&#xdf;" horiz-adv-x="1139" 
d="M168 0v1038q0 252 94 375t285 123q170 0 272.5 -102t102.5 -273q0 -116 -49 -191t-158 -128v-15q155 -48 226 -151.5t71 -280.5q0 -192 -91.5 -305t-246.5 -113q-38 0 -76.5 6t-77.5 18v173q35 -17 61 -25t50 -8q89 0 142.5 71.5t53.5 193.5q0 157 -76 243.5t-214 87.5
v164q103 14 155.5 76t52.5 170t-52.5 168.5t-145.5 60.5q-100 0 -149.5 -75.5t-49.5 -227.5v-1073h-180z" />
    <glyph glyph-name="registered" unicode="&#xae;" horiz-adv-x="1706" 
d="M846 1065h-144v-291h148q123 0 175 33t52 108q0 79 -54.5 114.5t-176.5 35.5zM872 1157q178 0 264.5 -57t86.5 -174q0 -89 -53 -148.5t-144 -75.5l188 -385h-157l-176 365h-179v-365h-141v840h311zM1501 721q0 133 -48 251.5t-138 209.5q-94 93 -211.5 141.5t-251.5 48.5
q-132 0 -247 -47t-204 -137q-94 -95 -144 -214t-50 -249q0 -127 49 -244t141 -211q91 -92 208 -141t245 -49q131 0 249.5 48.5t213.5 141.5q91 90 139.5 206t48.5 245zM852 1460q150 0 284 -55.5t240 -161.5q102 -102 156.5 -235.5t54.5 -282.5q0 -151 -54.5 -283
t-158.5 -233q-109 -106 -243.5 -162.5t-278.5 -56.5q-145 0 -278.5 56t-239.5 163q-105 104 -160 237t-55 279q0 147 57 282t164 242q101 103 232 157t280 54z" />
    <glyph glyph-name="copyright" unicode="&#xa9;" horiz-adv-x="1706" 
d="M1065 911q-15 77 -70.5 120.5t-138.5 43.5q-117 0 -182.5 -92.5t-65.5 -259.5q0 -160 66.5 -252t181.5 -92q87 0 145.5 48.5t73.5 133.5h129q-11 -127 -109 -207t-245 -80q-176 0 -280.5 121t-104.5 326q0 208 107.5 332.5t287.5 124.5q137 0 230 -74.5t104 -192.5h-129z
M1501 725q0 130 -49 249t-139 210q-92 92 -210 140t-251 48q-132 0 -247.5 -47.5t-205.5 -138.5q-93 -95 -142.5 -214t-49.5 -247q0 -127 49 -244t141 -211q93 -92 209.5 -141t245.5 -49t248.5 50t214.5 142q91 90 138.5 205.5t47.5 247.5zM852 1460q151 0 285 -55t239 -160
q102 -102 156.5 -236t54.5 -284q0 -151 -54 -283t-157 -233q-109 -106 -244.5 -162.5t-279.5 -56.5q-146 0 -278 55.5t-238 161.5q-106 105 -161.5 238.5t-55.5 279.5q0 145 56.5 279.5t162.5 242.5q102 104 234 158.5t280 54.5z" />
    <glyph glyph-name="trademark" unicode="&#x2122;" horiz-adv-x="1706" 
d="M948 1456l160 -405l149 405h132v-534h-82v458l-172 -458h-54l-180 458v-458h-82v534h129zM694 1456v-67h-172v-467h-94v467h-174v67h440z" />
    <glyph glyph-name="acute" unicode="&#xb4;" 
d="M369 1206l204 348h201l-285 -348h-120z" />
    <glyph glyph-name="dieresis" unicode="&#xa8;" 
d="M586 1266v209h182v-209h-182zM256 1266v209h182v-209h-182z" />
    <glyph glyph-name="notequal" unicode="&#x2260;" horiz-adv-x="1706" 
d="M1298 1110l-196 -250h350v-115h-424l-211 -270h635v-115h-709l-251 -319l-89 70l197 249h-346v115h420l211 270h-631v115h704l252 320z" />
    <glyph glyph-name="AE" unicode="&#xc6;" horiz-adv-x="1976" 
d="M680 1497h1157v-184h-719v-428h520v-185h-520v-514h746v-186h-949v319h-550l-146 -319h-205zM442 496h473v813h-108z" />
    <glyph glyph-name="Oslash" unicode="&#xd8;" horiz-adv-x="1251" 
d="M412 260q41 -64 94 -95.5t121 -31.5q152 0 222.5 148.5t70.5 470.5q0 146 -7 221.5t-22 134.5zM842 1239q-42 65 -95.5 97t-119.5 32q-153 0 -224 -149.5t-71 -470.5q0 -140 6.5 -220t21.5 -137zM240 180q-59 94 -88 235t-29 335q0 382 130 584t374 202q85 0 166 -33
t145 -94l70 127h131l-127 -217q59 -94 87.5 -235t28.5 -334q0 -383 -129 -586t-372 -203q-86 0 -168 33.5t-146 93.5l-110 -199h-131z" />
    <glyph glyph-name="infinity" unicode="&#x221e;" horiz-adv-x="1706" 
d="M905 559q51 -95 119 -141.5t156 -46.5q102 0 168.5 71t66.5 181q0 108 -61 179.5t-152 71.5q-85 0 -153.5 -72.5t-143.5 -242.5zM803 666q-51 95 -119 142.5t-154 47.5q-105 0 -171 -71t-66 -183q0 -108 61 -179t152 -71q85 0 152 69t145 245zM840 727q67 138 146 204
t175 66q134 0 226 -108.5t92 -272.5q0 -171 -82 -277t-213 -106q-96 0 -169 60t-149 201q-71 -138 -148 -201.5t-173 -63.5q-134 0 -226 109t-92 272q0 172 82.5 277.5t214.5 105.5q97 0 172 -63t144 -203z" />
    <glyph glyph-name="plusminus" unicode="&#xb1;" horiz-adv-x="1706" 
d="M1452 158v-117h-1198v117h1198zM913 1180v-344h539v-117h-539v-344h-118v344h-541v117h541v344h118z" />
    <glyph glyph-name="lessequal" unicode="&#x2264;" horiz-adv-x="1706" 
d="M1444 150v-117h-1182v117h1182zM1444 1067l-977 -324l977 -323v-125l-1182 399v101l1182 397v-125z" />
    <glyph glyph-name="greaterequal" unicode="&#x2265;" horiz-adv-x="1706" 
d="M1444 150v-117h-1182v117h1182zM1444 795v-101l-1182 -399v125l979 323l-979 324v125z" />
    <glyph glyph-name="yen" unicode="&#xa5;" horiz-adv-x="1366" 
d="M582 0v567h-488v113h436l-452 817h233l371 -729h25l376 729h220l-455 -817h422v-113h-473v-567h-215z" />
    <glyph glyph-name="mu" unicode="&#xb5;" horiz-adv-x="1128" 
d="M362 1069l-126 -595q-8 -33 -11.5 -67t-3.5 -71q0 -109 57 -168t160 -59q125 0 208 101t128 308l121 551h156l-162 -754q-12 -52 -17.5 -84t-5.5 -51q0 -32 18.5 -48.5t53.5 -16.5q9 0 17.5 0.5t17.5 1.5l-27 -125q-21 -5 -44 -7.5t-48 -2.5q-70 0 -104.5 35t-40.5 112
q-41 -70 -117 -108.5t-172 -38.5q-87 0 -152.5 34t-109.5 103l-113 -545h-156l316 1495h157z" />
    <glyph glyph-name="partialdiff" unicode="&#x2202;" horiz-adv-x="1044" 
d="M754 604q13 81 19.5 161.5t6.5 158.5q0 140 -39.5 216.5t-111.5 76.5q-53 0 -117 -63.5t-109 -63.5q-29 0 -51 21.5t-22 51.5q0 59 68 105.5t163 46.5q171 0 273 -152.5t102 -412.5q0 -335 -139 -555t-344 -220q-147 0 -241.5 106.5t-94.5 272.5q0 189 108.5 316
t266.5 127q99 0 162.5 -47t99.5 -146zM709 483q0 117 -45 180.5t-127 63.5q-113 0 -184.5 -127.5t-71.5 -333.5q0 -117 44 -178t128 -61q111 0 183.5 128t72.5 328z" />
    <glyph glyph-name="summation" unicode="&#x2211;" horiz-adv-x="1346" 
d="M51 1473h1239v-166h-989l690 -744l-719 -792h1035v-164h-1289v139l738 813l-705 758v156z" />
    <glyph glyph-name="product" unicode="&#x220f;" horiz-adv-x="1528" 
d="M160 1473h1208v-1866h-201v1693h-809v-1693h-198v1866z" />
    <glyph glyph-name="pi" unicode="&#x3c0;" horiz-adv-x="1186" 
d="M1139 930h-185l-110 -516q-14 -66 -21.5 -114.5t-7.5 -74.5q0 -57 24 -81.5t81 -24.5q21 0 46 2.5t52 7.5l-29 -129l-5 -1q-64 -15 -99 -15q-110 0 -168 51.5t-58 150.5q0 48 11.5 121t44.5 230l84 393h-348l-197 -930h-158l197 930h-39q-55 0 -84.5 -31t-40.5 -100h-145
q26 153 94 211.5t223 58.5h866z" />
    <glyph glyph-name="integral" unicode="&#x222b;" horiz-adv-x="1020" 
d="M301 -268q103 0 116 664q3 141 5 216q12 503 102 719.5t281 216.5q76 0 122 -39t46 -104q0 -48 -31 -77.5t-82 -29.5q-53 0 -85 35t-32 92q0 8 -6 15.5t-14 7.5q-105 0 -119 -634q-3 -157 -6 -245q-10 -308 -31.5 -461t-62.5 -247q-49 -114 -123 -173t-168 -59
q-73 0 -119.5 38t-46.5 97q0 53 31.5 84t83.5 31q47 0 79.5 -29t32.5 -67q0 -24 7.5 -37.5t19.5 -13.5z" />
    <glyph glyph-name="ordfeminine" unicode="&#xaa;" horiz-adv-x="768" 
d="M532 938v199q-152 -5 -235.5 -53t-83.5 -132q0 -57 35 -91t94 -34q40 0 87.5 28t102.5 83zM532 852h-18q-68 -68 -119 -93.5t-112 -25.5q-95 0 -151 54.5t-56 146.5q0 125 123 201t333 77v76q0 59 -29.5 87t-92.5 28q-55 0 -111.5 -18t-116.5 -54l-63 96q81 47 155 69
t148 22q126 0 186 -47.5t60 -147.5v-422q0 -32 14 -47.5t43 -15.5h16v-101h-24q-77 0 -121.5 28t-63.5 87z" />
    <glyph glyph-name="ordmasculine" unicode="&#xba;" horiz-adv-x="748" 
d="M68 1124q0 187 80 290.5t225 103.5t225 -103t80 -291q0 -186 -80 -288.5t-225 -102.5t-225 102.5t-80 288.5zM373 1403q-81 0 -123.5 -71.5t-42.5 -207.5q0 -135 42.5 -206.5t123.5 -71.5t123.5 71t42.5 207q0 137 -42.5 208t-123.5 71z" />
    <glyph glyph-name="Omega" unicode="&#x3a9;" horiz-adv-x="1573" 
d="M1473 156v-156h-590v150q193 111 296 279t103 374q0 251 -137 405t-359 154q-221 0 -359 -155t-138 -404q0 -205 103 -373.5t298 -279.5v-150h-590v156h332q-164 133 -242.5 285t-78.5 335q0 329 188.5 533t486.5 204q299 0 487.5 -202.5t188.5 -530.5
q0 -186 -78.5 -338.5t-242.5 -285.5h332z" />
    <glyph glyph-name="ae" unicode="&#xe6;" horiz-adv-x="1507" 
d="M844 643h448q-18 144 -74.5 217.5t-148.5 73.5q-93 0 -150 -74t-75 -217zM1411 111q-67 -70 -146 -103t-182 -33q-134 0 -223.5 57t-146.5 179q-102 -122 -195.5 -179t-191.5 -57q-123 0 -199 79t-76 208q0 180 164 288.5t444 111.5v108q0 84 -39 124t-122 40
q-74 0 -150 -25.5t-155 -77.5l-84 138q108 65 208 96t203 31q110 0 179.5 -38.5t107.5 -119.5q32 76 98 117t156 41q187 0 298 -155t115 -425h-632v-18q0 -185 61 -273t189 -88q48 0 96.5 21.5t99.5 64.5zM659 274v279q-204 -8 -315 -76t-111 -186q0 -82 47 -131t126 -49
q58 0 123.5 42t129.5 121z" />
    <glyph glyph-name="oslash" unicode="&#xf8;" horiz-adv-x="995" 
d="M831 897q37 -71 54.5 -160t17.5 -200q0 -268 -106 -415t-299 -147q-70 0 -133 23t-117 68l-111 -162h-162l189 270q-37 72 -55.5 163t-18.5 200q0 267 107 413t301 146q70 0 132.5 -23t117.5 -67l59 90h162zM713 729l-367 -524q34 -41 69.5 -59.5t82.5 -18.5
q111 0 169 104.5t58 305.5q0 68 -3 112.5t-9 79.5zM281 344l368 522q-34 42 -70 61t-81 19q-112 0 -171 -105t-59 -304q0 -69 3 -113.5t10 -79.5z" />
    <glyph glyph-name="questiondown" unicode="&#xbf;" 
d="M705 1382q0 -59 -43.5 -102t-102.5 -43q-60 0 -102.5 42.5t-42.5 102.5t42.5 102t102.5 42q59 0 102.5 -43t43.5 -101zM647 995q0 -8 1 -24.5t1 -24.5q0 -92 -22 -173.5t-68 -160.5q-24 -42 -108 -152t-84 -181t50.5 -117.5t127.5 -46.5q67 0 114 44t80 138l189 -76
q-51 -126 -153.5 -193t-244.5 -67q-160 0 -263 90.5t-103 231.5q0 133 150 300q34 38 51 58q63 74 89.5 144t26.5 161q0 20 -0.5 30.5t-1.5 18.5h168z" />
    <glyph glyph-name="exclamdown" unicode="&#xa1;" horiz-adv-x="797" 
d="M465 1010l45 -1010h-223l45 1010h133zM543 1376q0 -59 -43 -101t-103 -42t-101.5 41.5t-41.5 101.5t42 103t101 43t102.5 -43.5t43.5 -102.5z" />
    <glyph glyph-name="logicalnot" unicode="&#xac;" horiz-adv-x="1706" 
d="M1452 858v-502h-115v385h-1083v117h1198z" />
    <glyph glyph-name="radical" unicode="&#x221a;" horiz-adv-x="1288" 
d="M1288 1647v-82h-119l-594 -1606h-53l-323 893l-119 -43l-23 68l262 92l265 -729l522 1407h182z" />
    <glyph glyph-name="florin" unicode="&#x192;" horiz-adv-x="1139" 
d="M20 -293l82 180q28 -37 57.5 -55t61.5 -18q74 0 119.5 86t73.5 278l82 567h-291v158h309l12 115q26 251 116.5 384.5t234.5 133.5q56 0 108 -18t98 -54l-65 -155q-30 31 -59 47t-56 16q-65 0 -104 -62t-60 -200l-30 -207h290v-158h-309l-82 -602q-33 -240 -134 -369.5
t-255 -129.5q-45 0 -92.5 15t-106.5 48z" />
    <glyph glyph-name="approxequal" unicode="&#x2248;" horiz-adv-x="1706" 
d="M1530 453q-107 -75 -202 -110.5t-187 -35.5q-98 0 -288 69.5t-290 69.5q-82 0 -169.5 -35.5t-215.5 -123.5v131q106 73 202 109t185 36q111 0 301.5 -68.5t276.5 -68.5q85 0 173.5 35.5t213.5 122.5v-131zM1530 803q-104 -73 -200 -108.5t-187 -35.5q-100 0 -290 69
t-290 69q-83 0 -171.5 -36t-213.5 -122v131q106 73 202 109t185 36q111 0 300.5 -68.5t277.5 -68.5q87 0 175 35t212 121v-131z" />
    <glyph glyph-name="Delta" unicode="&#x2206;" horiz-adv-x="1356" 
d="M1122 158l-444 1138l-445 -1138h889zM780 1473l586 -1473h-1374l586 1473h202z" />
    <glyph glyph-name="guillemotleft" unicode="&#xab;" 
d="M735 223l-264 324l264 325h170l-264 -325l264 -324h-170zM375 223l-264 324l264 325h170l-264 -325l264 -324h-170z" />
    <glyph glyph-name="guillemotright" unicode="&#xbb;" 
d="M649 223h-170l264 324l-264 325h170l264 -325zM289 223h-170l264 324l-264 325h170l264 -325z" />
    <glyph glyph-name="ellipsis" unicode="&#x2026;" horiz-adv-x="2048" 
d="M196 121q0 59 43.5 102t102.5 43t101 -42.5t42 -102.5t-42 -103t-101 -43t-102.5 43.5t-43.5 102.5zM878 121q0 59 43.5 102t102.5 43t101 -42.5t42 -102.5t-42 -103t-101 -43t-102.5 43.5t-43.5 102.5zM1562 121q0 59 43.5 102t102.5 43t101 -42.5t42 -102.5t-42 -103
t-101 -43t-102.5 43.5t-43.5 102.5z" />
    <glyph glyph-name="nonbreakingspace" unicode="&#xa0;" horiz-adv-x="1139" 
 />
    <glyph glyph-name="Agrave" unicode="&#xc0;" horiz-adv-x="1366" 
d="M1075 0l-102 319h-582l-102 -319h-217l491 1497h238l491 -1497h-217zM444 496h476l-238 784zM827 1646h-120l-285 348h201z" />
    <glyph glyph-name="Atilde" unicode="&#xc3;" horiz-adv-x="1366" 
d="M1075 0l-102 319h-582l-102 -319h-217l491 1497h238l491 -1497h-217zM444 496h476l-238 784zM977 1925q-20 -102 -70.5 -155.5t-126.5 -53.5q-14 0 -30.5 2.5t-34.5 7.5l-97 27q-18 5 -29.5 7.5t-19.5 2.5q-30 0 -53 -17.5t-37 -52.5h-88q18 99 68 152t125 53
q14 0 29 -2.5t30 -7.5l98 -27q23 -6 34 -8t20 -2q33 0 56.5 18.5t37.5 55.5h88z" />
    <glyph glyph-name="Otilde" unicode="&#xd5;" horiz-adv-x="1251" 
d="M340 750q0 -314 69 -458.5t218 -144.5q148 0 216 143.5t68 459.5q0 315 -68 458.5t-216 143.5q-149 0 -218 -144.5t-69 -457.5zM123 750q0 382 130 584t374 202q243 0 372 -202t129 -584q0 -383 -129 -586t-372 -203q-244 0 -374 203t-130 586zM920 1925
q-20 -102 -70.5 -155.5t-126.5 -53.5q-14 0 -30.5 2.5t-34.5 7.5l-97 27q-18 5 -29.5 7.5t-19.5 2.5q-30 0 -53 -17.5t-37 -52.5h-88q18 99 68 152t125 53q14 0 29 -2.5t30 -7.5l98 -27q23 -6 34 -8t20 -2q33 0 56.5 18.5t37.5 55.5h88z" />
    <glyph glyph-name="OE" unicode="&#x152;" horiz-adv-x="1982" 
d="M1585 700h-520v-514h745v-186h-1183q-243 0 -373.5 193.5t-130.5 556.5q0 361 130.5 554t373.5 193h1157v-184h-719v-430h520v-183zM852 440v619q0 138 -47.5 201t-151.5 63q-169 0 -241 -130t-72 -443q0 -314 72 -444t241 -130q104 0 151.5 63t47.5 201z" />
    <glyph glyph-name="oe" unicode="&#x153;" horiz-adv-x="1554" 
d="M1458 111q-70 -70 -146 -103t-163 -33q-124 0 -213.5 53t-134.5 152q-49 -98 -127.5 -151.5t-175.5 -53.5q-194 0 -301 147t-107 415q0 267 107 413t301 146q102 0 180 -54t135 -163q58 106 137 161.5t172 55.5q176 0 285.5 -157.5t114.5 -422.5h-633v-18q0 -185 61 -273
t189 -88q48 0 96.5 21.5t99.5 64.5zM891 643h448q-18 144 -74.5 217.5t-148.5 73.5q-93 0 -150 -74t-75 -217zM498 934q-109 0 -166.5 -102t-57.5 -295q0 -195 57.5 -297.5t166.5 -102.5q107 0 164 102.5t57 297.5q0 194 -56.5 295.5t-164.5 101.5z" />
    <glyph glyph-name="endash" unicode="&#x2013;" 
d="M0 496v106h1024v-106h-1024z" />
    <glyph glyph-name="emdash" unicode="&#x2014;" horiz-adv-x="2048" 
d="M0 602h2048v-106h-2048v106z" />
    <glyph glyph-name="quotedblleft" unicode="&#x201c;" horiz-adv-x="1139" 
d="M1030 907h-172l-237 629h172zM500 907h-172l-238 629h172z" />
    <glyph glyph-name="quotedblright" unicode="&#x201d;" horiz-adv-x="1139" 
d="M90 907l238 629h172l-238 -629h-172zM621 907l237 629h172l-237 -629h-172z" />
    <glyph glyph-name="quoteleft" unicode="&#x2018;" horiz-adv-x="569" 
d="M489 907h-172l-237 629h172z" />
    <glyph glyph-name="quoteright" unicode="&#x2019;" horiz-adv-x="569" 
d="M80 907l237 629h172l-237 -629h-172z" />
    <glyph glyph-name="divide" unicode="&#xf7;" horiz-adv-x="1706" 
d="M854 365q47 0 81 -34t34 -81t-33.5 -81t-81.5 -34t-81.5 33.5t-33.5 81.5t34 81.5t81 33.5zM1452 670v-117h-1198v117h1198zM854 1085q48 0 81.5 -33.5t33.5 -80.5q0 -48 -33.5 -81.5t-81.5 -33.5q-49 0 -82 33.5t-33 81.5q0 47 34 80.5t81 33.5z" />
    <glyph glyph-name="lozenge" unicode="&#x25ca;" horiz-adv-x="1012" 
d="M506 1409l-385 -817l385 -825l385 825zM506 1653l500 -1061l-500 -1069l-500 1069z" />
    <glyph glyph-name="ydieresis" unicode="&#xff;" horiz-adv-x="909" 
d="M57 -315v188h43q20 -33 44.5 -50.5t52.5 -17.5q52 0 92.5 51.5t105.5 213.5l-332 1001h183l219 -731h20l234 731h184l-330 -999q-72 -222 -158.5 -324t-199.5 -102q-37 0 -76.5 9.5t-81.5 29.5zM529 1266v209h182v-209h-182zM199 1266v209h182v-209h-182z" />
    <glyph glyph-name="Ydieresis" unicode="&#x178;" horiz-adv-x="1366" 
d="M582 0v586l-504 911h233l371 -719h25l376 719h220l-506 -905v-592h-215zM758 1706v209h182v-209h-182zM428 1706v209h182v-209h-182z" />
    <glyph glyph-name="fraction" unicode="&#x2215;" horiz-adv-x="342" 
d="M553 1536h129l-893 -1575h-131z" />
    <glyph glyph-name="currency" unicode="&#xa4;" horiz-adv-x="1139" 
d="M797 569h-389q19 -224 90 -334t196 -110q92 0 158 77.5t86 205.5l195 -39q-1 -2 -3 -9q-116 -399 -436 -399q-209 0 -336 156t-157 452h-172l32 113h132v68v52.5t1 33.5h-163l30 112h142q32 286 158 437t333 151q156 0 271 -107.5t161 -277.5l-190 -47q-25 122 -88 196
t-154 74q-124 0 -194 -104.5t-90 -321.5h495l-33 -112l-469 -1q-1 -14 -1.5 -31t-0.5 -54v-68h428z" />
    <glyph glyph-name="guilsinglleft" unicode="&#x2039;" horiz-adv-x="682" 
d="M391 223l-264 324l264 325h170l-264 -325l264 -324h-170z" />
    <glyph glyph-name="guilsinglright" unicode="&#x203a;" horiz-adv-x="682" 
d="M291 223h-170l264 324l-264 325h170l264 -325z" />
    <glyph glyph-name="fi" unicode="&#xf001;" horiz-adv-x="1200" 
d="M238 0v862h-175v129h175v199q0 153 117 249.5t307 96.5q62 0 131.5 -13t146.5 -38v-182q-86 36 -155 53.5t-123 17.5q-116 0 -180 -52.5t-64 -145.5v-185h590v-991h-181v862h-409v-862h-180z" />
    <glyph glyph-name="fl" unicode="&#xf002;" horiz-adv-x="1200" 
d="M418 991h409v352q-43 16 -84.5 23.5t-80.5 7.5q-116 0 -180 -52t-64 -146v-185zM238 0v862h-175v129h175v199q0 153 117 249.5t307 96.5q65 0 125 -11t116 -34l105 45v-1536h-181v862h-409v-862h-180z" />
    <glyph glyph-name="daggerdbl" unicode="&#x2021;" horiz-adv-x="1139" 
d="M676 649q-20 -78 -34.5 -162.5t-27.5 -195.5l328 61v-196l-328 61l62 -418h-215l61 418l-327 -61v196l325 -61q-6 72 -20.5 160t-38.5 198q24 110 38.5 198.5t20.5 160.5l-325 -62v197l327 -62l-61 416h215l-62 -416l328 62v-197l-328 62q11 -103 26 -191t36 -168z" />
    <glyph glyph-name="glyph195" unicode="&#xb7;" horiz-adv-x="569" 
d="M139 766q0 59 43.5 102t102.5 43t101 -42.5t42 -102.5t-42 -102.5t-101 -42.5t-102.5 43.5t-43.5 101.5z" />
    <glyph glyph-name="quotesinglbase" unicode="&#x201a;" horiz-adv-x="569" 
d="M12 -356l238 630h172l-238 -630h-172z" />
    <glyph glyph-name="quotedblbase" unicode="&#x201e;" horiz-adv-x="1139" 
d="M90 -356l238 630h172l-238 -630h-172zM621 -356l237 630h172l-237 -630h-172z" />
    <glyph glyph-name="perthousand" unicode="&#x2030;" horiz-adv-x="2570" 
d="M1073 334q0 -86 61.5 -147.5t147.5 -61.5q87 0 148 61t61 148t-60.5 148t-148.5 61t-148.5 -61t-60.5 -148zM1759 334q0 155 108 264t263 109t264 -109t109 -264t-109 -264t-264 -109q-153 0 -262 109.5t-109 263.5zM1921 334q0 -86 61.5 -147.5t147.5 -61.5q87 0 148 61
t61 148t-61 148t-148 61q-88 0 -148.5 -61t-60.5 -148zM909 334q0 155 109 264t264 109t264 -109t109 -264t-109 -264t-264 -109q-154 0 -263.5 109.5t-109.5 263.5zM449 -39h-152l975 1575h151zM229 1163q0 -86 61.5 -147.5t147.5 -61.5q87 0 148 61.5t61 147.5
q0 88 -60.5 148.5t-148.5 60.5q-87 0 -148 -60.5t-61 -148.5zM68 1163q0 156 107.5 264.5t262.5 108.5t264 -109t109 -264t-108.5 -262.5t-264.5 -107.5q-153 0 -261.5 108.5t-108.5 261.5z" />
    <glyph glyph-name="Acircumflex" unicode="&#xc2;" horiz-adv-x="1366" 
d="M1075 0l-102 319h-582l-102 -319h-217l491 1497h238l491 -1497h-217zM444 496h476l-238 784zM389 1646l197 348h196l197 -348h-123l-172 228l-174 -228h-121z" />
    <glyph glyph-name="Ecircumflex" unicode="&#xca;" horiz-adv-x="1366" 
d="M236 0v1499h931v-186h-718v-428h520v-185h-520v-514h747v-186h-960zM407 1646l197 348h196l197 -348h-123l-172 228l-174 -228h-121z" />
    <glyph glyph-name="Aacute" unicode="&#xc1;" horiz-adv-x="1366" 
d="M1075 0l-102 319h-582l-102 -319h-217l491 1497h238l491 -1497h-217zM444 496h476l-238 784zM541 1646l204 348h201l-285 -348h-120z" />
    <glyph glyph-name="Edieresis" unicode="&#xcb;" horiz-adv-x="1366" 
d="M236 0v1499h931v-186h-718v-428h520v-185h-520v-514h747v-186h-960zM776 1706v209h182v-209h-182zM446 1706v209h182v-209h-182z" />
    <glyph glyph-name="Egrave" unicode="&#xc8;" horiz-adv-x="1366" 
d="M236 0v1499h931v-186h-718v-428h520v-185h-520v-514h747v-186h-960zM845 1646h-120l-285 348h201z" />
    <glyph glyph-name="Iacute" unicode="&#xcd;" horiz-adv-x="797" 
d="M162 0v141h129v1215h-129v141h473v-141h-129v-1215h129v-141h-473zM256 1646l204 348h201l-285 -348h-120z" />
    <glyph glyph-name="Icircumflex" unicode="&#xce;" horiz-adv-x="797" 
d="M162 0v141h129v1215h-129v141h473v-141h-129v-1215h129v-141h-473zM104 1646l197 348h196l197 -348h-123l-172 228l-174 -228h-121z" />
    <glyph glyph-name="Idieresis" unicode="&#xcf;" horiz-adv-x="797" 
d="M162 0v141h129v1215h-129v141h473v-141h-129v-1215h129v-141h-473zM473 1706v209h182v-209h-182zM143 1706v209h182v-209h-182z" />
    <glyph glyph-name="Igrave" unicode="&#xcc;" horiz-adv-x="797" 
d="M162 0v141h129v1215h-129v141h473v-141h-129v-1215h129v-141h-473zM542 1646h-120l-285 348h201z" />
    <glyph glyph-name="Oacute" unicode="&#xd3;" horiz-adv-x="1251" 
d="M340 750q0 -314 69 -458.5t218 -144.5q148 0 216 143.5t68 459.5q0 315 -68 458.5t-216 143.5q-149 0 -218 -144.5t-69 -457.5zM123 750q0 382 130 584t374 202q243 0 372 -202t129 -584q0 -383 -129 -586t-372 -203q-244 0 -374 203t-130 586zM484 1646l204 348h201
l-285 -348h-120z" />
    <glyph glyph-name="Ocircumflex" unicode="&#xd4;" horiz-adv-x="1251" 
d="M340 750q0 -314 69 -458.5t218 -144.5q148 0 216 143.5t68 459.5q0 315 -68 458.5t-216 143.5q-149 0 -218 -144.5t-69 -457.5zM123 750q0 382 130 584t374 202q243 0 372 -202t129 -584q0 -383 -129 -586t-372 -203q-244 0 -374 203t-130 586zM332 1646l197 348h196
l197 -348h-123l-172 228l-174 -228h-121z" />
    <glyph glyph-name="apple" unicode="&#xf000;" horiz-adv-x="1618" 
d="M836 1216q-1 6 -1.5 14t-0.5 23q0 124 95 229.5t236 131.5q1 -10 1.5 -23t0.5 -39q0 -131 -103.5 -234.5t-203.5 -103.5h-8q-3 0 -7.5 1t-8.5 1zM1505 403q-114 -247 -205 -342.5t-204 -95.5q-50 0 -131.5 33t-122.5 33q-45 0 -131 -33t-127 -33q-64 0 -128.5 44
t-129.5 132q-102 140 -157.5 295.5t-55.5 300.5q0 219 125 356.5t323 137.5q68 0 155 -34t124 -34q34 0 121.5 35t152.5 35q110 0 198 -40t161 -124q-102 -65 -151.5 -145.5t-49.5 -182.5q0 -113 60 -200t173 -138z" />
    <glyph glyph-name="Ograve" unicode="&#xd2;" horiz-adv-x="1251" 
d="M340 750q0 -314 69 -458.5t218 -144.5q148 0 216 143.5t68 459.5q0 315 -68 458.5t-216 143.5q-149 0 -218 -144.5t-69 -457.5zM123 750q0 382 130 584t374 202q243 0 372 -202t129 -584q0 -383 -129 -586t-372 -203q-244 0 -374 203t-130 586zM770 1646h-120l-285 348
h201z" />
    <glyph glyph-name="Uacute" unicode="&#xda;" horiz-adv-x="1479" 
d="M254 1497h213v-948q0 -204 64.5 -303t197.5 -99q147 0 215 105t68 336v909h190v-1022q0 -233 -130 -373.5t-345 -140.5q-229 0 -351 140t-122 405v991zM596 1646l204 348h201l-285 -348h-120z" />
    <glyph glyph-name="Ucircumflex" unicode="&#xdb;" horiz-adv-x="1479" 
d="M254 1497h213v-948q0 -204 64.5 -303t197.5 -99q147 0 215 105t68 336v909h190v-1022q0 -233 -130 -373.5t-345 -140.5q-229 0 -351 140t-122 405v991zM444 1646l197 348h196l197 -348h-123l-172 228l-174 -228h-121z" />
    <glyph glyph-name="Ugrave" unicode="&#xd9;" horiz-adv-x="1479" 
d="M254 1497h213v-948q0 -204 64.5 -303t197.5 -99q147 0 215 105t68 336v909h190v-1022q0 -233 -130 -373.5t-345 -140.5q-229 0 -351 140t-122 405v991zM882 1646h-120l-285 348h201z" />
    <glyph glyph-name="dotlessi" unicode="&#x131;" horiz-adv-x="569" 
d="M195 1071h180v-1071h-180v1071z" />
    <glyph glyph-name="circumflex" unicode="&#x2c6;" 
d="M217 1206l197 348h196l197 -348h-123l-172 228l-174 -228h-121z" />
    <glyph glyph-name="tilde" unicode="&#x2dc;" 
d="M805 1485q-20 -102 -70.5 -155.5t-126.5 -53.5q-14 0 -30.5 2.5t-34.5 7.5l-97 27q-18 5 -29.5 7.5t-19.5 2.5q-30 0 -53 -17.5t-37 -52.5h-88q18 99 68 152t125 53q14 0 29 -2.5t30 -7.5l98 -27q23 -6 34 -8t20 -2q33 0 56.5 18.5t37.5 55.5h88z" />
    <glyph glyph-name="macron" unicode="&#xaf;" 
d="M242 1298v142h540v-142h-540z" />
    <glyph glyph-name="breve" unicode="&#x2d8;" 
d="M221 1520l109 -1q5 -72 49 -105.5t133 -33.5t133 34t49 105l109 1q-11 -145 -81 -212t-210 -67t-210 67t-81 212z" />
    <glyph glyph-name="dotaccent" unicode="&#x2d9;" 
d="M416 1260v219h192v-219h-192z" />
    <glyph glyph-name="ring" unicode="&#x2da;" 
d="M377 1440q0 -57 39 -96t96 -39q56 0 95.5 39t39.5 96q0 55 -40 95t-95 40q-57 0 -96 -39t-39 -96zM260 1440q0 106 73 179t179 73t180 -73.5t74 -178.5q0 -106 -74 -179t-180 -73t-179 73t-73 179z" />
    <glyph glyph-name="cedilla" unicode="&#xb8;" 
d="M293 -426v100q78 -18 143.5 -28.5t104.5 -10.5q60 0 89 20.5t29 61.5q0 44 -32 65t-101 21q-20 0 -31.5 -0.5t-21.5 -0.5v198h78v-102h29q109 0 166 -46t57 -135q0 -91 -64.5 -139.5t-185.5 -48.5q-51 0 -117 11.5t-143 33.5z" />
    <glyph glyph-name="hungarumlaut" unicode="&#x2dd;" 
d="M569 1206l166 348h176l-245 -348h-97zM311 1206l138 348h178l-219 -348h-97z" />
    <glyph glyph-name="ogonek" unicode="&#x2db;" 
d="M621 0q-72 -63 -105 -116.5t-33 -104.5q0 -43 21.5 -60.5t75.5 -17.5h84v-143h-86q-113 0 -169.5 42t-56.5 126q0 66 43.5 130.5t143.5 143.5h82z" />
    <glyph glyph-name="caron" unicode="&#x2c7;" 
d="M217 1554h121l174 -227l172 227h123l-197 -348h-196z" />
    <glyph glyph-name="Lslash" unicode="&#x141;" horiz-adv-x="1208" 
d="M252 0v692l-252 -174v127l252 178v674h213v-559l401 285v-133l-401 -279v-627h686v-184h-899z" />
    <glyph glyph-name="lslash" unicode="&#x142;" horiz-adv-x="569" 
d="M195 0v647l-195 -135v119l195 135v704l180 66v-643l194 133v-117l-194 -139v-770h-180z" />
    <glyph glyph-name="Scaron" unicode="&#x160;" horiz-adv-x="1251" 
d="M121 303l182 117q73 -145 152.5 -210t183.5 -65q115 0 182.5 65t67.5 175q0 45 -18 88.5t-50 73.5q-65 61 -227 135q-44 20 -66 31q-6 3 -19 9q-190 91 -257 181q-37 50 -56.5 108.5t-19.5 121.5q0 179 119.5 291t312.5 112q157 0 274 -78t197 -237l-172 -109
q-58 127 -128.5 182.5t-170.5 55.5q-104 0 -160.5 -51.5t-56.5 -145.5q0 -32 11 -63t32 -56q50 -62 209 -135q48 -22 74 -35q223 -110 305 -213.5t82 -259.5q0 -195 -129 -312.5t-342 -117.5q-180 0 -306 84.5t-206 257.5zM332 1994h121l174 -227l172 227h123l-197 -348
h-196z" />
    <glyph glyph-name="scaron" unicode="&#x161;" horiz-adv-x="797" 
d="M37 125l98 119q70 -67 131 -98t121 -31q84 0 133 42.5t49 114.5q0 62 -27.5 99t-115.5 82l-141 69q-98 48 -148.5 117.5t-50.5 157.5q0 132 94.5 215.5t245.5 83.5q70 0 137 -22t135 -66l-53 -142q-55 45 -110.5 65.5t-118.5 20.5q-80 0 -123 -32.5t-43 -92.5
q0 -48 26 -81t86 -62l121 -59q140 -68 195 -141t55 -187q0 -137 -98.5 -229.5t-245.5 -92.5q-84 0 -172.5 38t-179.5 112zM104 1554h121l174 -227l172 227h123l-197 -348h-196z" />
    <glyph glyph-name="Zcaron" unicode="&#x17d;" horiz-adv-x="1251" 
d="M127 0v154l717 1153v16q-54 -5 -100.5 -7.5t-90.5 -2.5h-499v184h960v-123l-733 -1175v-18q37 4 75.5 6.5t78.5 2.5h610v-190h-1018zM332 1994h121l174 -227l172 227h123l-197 -348h-196z" />
    <glyph glyph-name="zcaron" unicode="&#x17e;" horiz-adv-x="909" 
d="M817 0h-713v152l502 757h-479v162h686v-151l-496 -758h500v-162zM160 1554h121l174 -227l172 227h123l-197 -348h-196z" />
    <glyph glyph-name="brokenbar" unicode="&#xa6;" 
d="M575 408v-758h-126v758h126zM575 1432v-758h-126v758h126z" />
    <glyph glyph-name="Eth" unicode="&#xd0;" horiz-adv-x="1323" 
d="M182 0v729h-182v115h182v653h355q331 0 502 -190t171 -557q0 -369 -171.5 -559.5t-501.5 -190.5h-355zM397 184h115q249 0 362 134.5t113 431.5q0 295 -112.5 429t-362.5 134h-115v-469h283v-115h-283v-545z" />
    <glyph glyph-name="eth" unicode="&#xf0;" horiz-adv-x="995" 
d="M498 905q-110 0 -168 -99t-58 -288q0 -188 58 -286.5t168 -98.5t167.5 98t57.5 287q0 190 -57.5 288.5t-167.5 98.5zM643 973q-23 64 -59.5 125t-85.5 119l-279 -103l-37 96l240 88q-33 32 -77 62.5t-99 60.5l67 111q73 -37 139 -81.5t126 -96.5l241 92l37 -96l-197 -72
q129 -139 190.5 -325.5t61.5 -434.5q0 -258 -108.5 -400.5t-304.5 -142.5q-197 0 -305.5 142.5t-108.5 400.5q0 241 91 385t241 144q51 0 103.5 -21.5t109.5 -64.5z" />
    <glyph glyph-name="Yacute" unicode="&#xdd;" horiz-adv-x="1366" 
d="M582 0v586l-504 911h233l371 -719h25l376 719h220l-506 -905v-592h-215zM541 1646l204 348h201l-285 -348h-120z" />
    <glyph glyph-name="yacute" unicode="&#xfd;" horiz-adv-x="909" 
d="M57 -315v188h43q20 -33 44.5 -50.5t52.5 -17.5q52 0 92.5 51.5t105.5 213.5l-332 1001h183l219 -731h20l234 731h184l-330 -999q-72 -222 -158.5 -324t-199.5 -102q-37 0 -76.5 9.5t-81.5 29.5zM312 1206l204 348h201l-285 -348h-120z" />
    <glyph glyph-name="Thorn" unicode="&#xde;" horiz-adv-x="1276" 
d="M610 1034h-149v-542h149q191 0 281 65.5t90 204.5t-90.5 205.5t-280.5 66.5zM248 1497h213v-283h172q275 0 421 -116.5t146 -335.5t-146 -335t-421 -116h-172v-311h-213v1497z" />
    <glyph glyph-name="thorn" unicode="&#xfe;" 
d="M569 944q-114 0 -188 -113.5t-74 -293.5t75.5 -295t186.5 -115q104 0 155.5 102t51.5 308q0 203 -51.5 305t-155.5 102zM125 1470l182 66v-651h19q80 113 149 162t146 49q155 0 248.5 -151t93.5 -408q0 -258 -93.5 -410t-248.5 -152q-78 0 -147.5 50t-147.5 165h-19v-546
h-182v1826z" />
    <glyph glyph-name="minus" unicode="&#x2212;" horiz-adv-x="1706" 
d="M1452 670v-119h-1198v119h1198z" />
    <glyph glyph-name="multiply" unicode="&#xd7;" horiz-adv-x="1706" 
d="M858 692l475 477l82 -82l-475 -477l475 -475l-82 -82l-475 475l-477 -475l-80 82l475 475l-475 477l80 82z" />
    <glyph glyph-name="onesuperior" unicode="&#xb9;" horiz-adv-x="752" 
d="M137 600v109h209v682h-229v108h362v-790h203v-109h-545z" />
    <glyph glyph-name="twosuperior" unicode="&#xb2;" horiz-adv-x="752" 
d="M66 600v14q0 98 39 174t135 160q24 22 104.5 81t128.5 104q36 34 56 72t20 73q0 60 -45 97.5t-117 37.5q-80 0 -131 -34.5t-86 -112.5l-109 61q61 103 135 149t179 46q138 0 222.5 -69t84.5 -181q0 -50 -18.5 -97t-55.5 -88q-42 -49 -165 -132l-39 -27l-4 -3
q-175 -128 -183 -216h479v-109h-630z" />
    <glyph glyph-name="threesuperior" unicode="&#xb3;" horiz-adv-x="752" 
d="M6 651l135 2q89 0 164 26t137 77q40 32 62 71.5t22 77.5q0 57 -41.5 94t-105.5 37q-27 0 -52.5 -3.5t-50.5 -10.5l-65 -21l-37 84l86 37q108 45 161.5 94t53.5 103q0 44 -36.5 72t-94.5 28q-59 0 -118.5 -30t-125.5 -93l-75 86q81 74 161.5 108t173.5 34
q113 0 181.5 -52.5t68.5 -136.5q0 -61 -44.5 -115t-135.5 -102q113 -17 170 -73.5t57 -151.5q0 -70 -39 -133.5t-114 -114.5q-64 -44 -156.5 -71t-181.5 -27l-156 -2z" />
    <glyph glyph-name="onequarter" unicode="&#xbc;" horiz-adv-x="1776" 
d="M1210 330h293v450zM1503 0v229h-393v131l317 478h193v-508h113v-101h-113v-229h-117zM1270 1536h129l-893 -1575h-131zM131 659v101h199v639h-219v98h346v-737h194v-101h-520z" />
    <glyph glyph-name="onehalf" unicode="&#xbd;" horiz-adv-x="1776" 
d="M1122 0v14q0 90 37.5 161t128.5 151q24 21 101.5 76t121.5 96q35 31 53.5 66.5t18.5 68.5q0 57 -42.5 92t-113.5 35q-76 0 -124 -32.5t-82 -106.5l-105 59q60 95 131 137.5t170 42.5q132 0 212.5 -64t80.5 -169q0 -44 -17.5 -88t-52.5 -84q-37 -42 -142 -113
q-36 -24 -54 -37l-3 -2q-167 -119 -175 -203h456v-100h-600zM1270 1536h129l-893 -1575h-131zM131 659v101h199v639h-219v98h346v-737h194v-101h-520z" />
    <glyph glyph-name="threequarters" unicode="&#xbe;" horiz-adv-x="1778" 
d="M1210 330h293v450zM1503 0v229h-393v131l317 478h193v-508h113v-101h-113v-229h-117zM1270 1536h129l-893 -1575h-131zM6 709h130q85 1 157 25t131 71q37 30 58.5 67t21.5 72q0 53 -40.5 88t-103.5 35q-24 0 -48 -3.5t-47 -10.5l-64 -19l-35 78l84 35q102 42 153.5 88
t51.5 96q0 41 -36 67.5t-91 26.5q-56 0 -112.5 -28.5t-119.5 -87.5l-73 80q77 69 154 101t167 32q106 0 173 -49.5t67 -126.5q0 -57 -43 -107.5t-131 -95.5q109 -15 164 -67t55 -142q0 -66 -37 -124.5t-111 -107.5q-62 -40 -150 -66t-174 -28h-149z" />
    <glyph glyph-name="franc" unicode="&#x20a3;" horiz-adv-x="1982" 
d="M225 0v1497h924v-184h-711v-469h508v-185h-508v-659h-213zM1383 0v1028l180 68v-369h26q84 149 175 242.5t184 126.5v-307q-21 3 -37 4.5t-29 1.5q-78 0 -153.5 -44.5t-165.5 -144.5v-606h-180z" />
    <glyph glyph-name="Gbreve" unicode="&#x11e;" horiz-adv-x="1366" 
d="M1167 -25h-73l-80 150h-41q-71 -87 -146.5 -125.5t-173.5 -38.5q-232 0 -365.5 211t-133.5 584q0 365 142 572.5t390 207.5q153 0 267 -95.5t161 -264.5l-199 -46q-24 103 -86.5 159.5t-150.5 56.5q-152 0 -228.5 -149t-76.5 -443q0 -300 77 -451t230 -151q123 0 206 97
t83 245v14h-287v184h485v-717zM393 1960l109 -1q5 -72 49 -105.5t133 -33.5t133 34t49 105l109 1q-11 -145 -81 -212t-210 -67t-210 67t-81 212z" />
    <glyph glyph-name="gbreve" unicode="&#x11f;" 
d="M473 238q114 0 189 102t75 262t-74.5 260.5t-189.5 100.5q-104 0 -155.5 -90.5t-51.5 -270.5q0 -181 52 -272.5t155 -91.5zM918 43q0 -179 -121.5 -289t-321.5 -110q-60 0 -122.5 10.5t-131.5 32.5v188h51q35 -37 80.5 -54.5t106.5 -17.5q135 0 206.5 65t71.5 187v240
h-18q-81 -103 -150.5 -147t-146.5 -44q-155 0 -247.5 134.5t-92.5 363.5q0 228 92.5 362t247.5 134q77 0 147.5 -44t149.5 -143h18v164h181v-1032zM221 1520l109 -1q5 -72 49 -105.5t133 -33.5t133 34t49 105l109 1q-11 -145 -81 -212t-210 -67t-210 67t-81 212z" />
    <glyph glyph-name="Idotaccent" unicode="&#x130;" horiz-adv-x="797" 
d="M162 0v141h129v1215h-129v141h473v-141h-129v-1215h129v-141h-473zM303 1700v219h192v-219h-192z" />
    <glyph glyph-name="Scedilla" unicode="&#x15e;" horiz-adv-x="1251" 
d="M121 303l182 117q73 -145 152.5 -210t183.5 -65q115 0 182.5 65t67.5 175q0 45 -18 88.5t-50 73.5q-65 61 -227 135q-44 20 -66 31q-6 3 -19 9q-190 91 -257 181q-37 50 -56.5 108.5t-19.5 121.5q0 179 119.5 291t312.5 112q157 0 274 -78t197 -237l-172 -109
q-58 127 -128.5 182.5t-170.5 55.5q-104 0 -160.5 -51.5t-56.5 -145.5q0 -32 11 -63t32 -56q50 -62 209 -135q48 -22 74 -35q223 -110 305 -213.5t82 -259.5q0 -195 -129 -312.5t-342 -117.5q-180 0 -306 84.5t-206 257.5zM408 -426v100q78 -18 143.5 -28.5t104.5 -10.5
q60 0 89 20.5t29 61.5q0 44 -32 65t-101 21q-20 0 -31.5 -0.5t-21.5 -0.5v198h78v-102h29q109 0 166 -46t57 -135q0 -91 -64.5 -139.5t-185.5 -48.5q-51 0 -117 11.5t-143 33.5z" />
    <glyph glyph-name="scedilla" unicode="&#x15f;" horiz-adv-x="797" 
d="M37 125l98 119q70 -67 131 -98t121 -31q84 0 133 42.5t49 114.5q0 62 -27.5 99t-115.5 82l-141 69q-98 48 -148.5 117.5t-50.5 157.5q0 132 94.5 215.5t245.5 83.5q70 0 137 -22t135 -66l-53 -142q-55 45 -110.5 65.5t-118.5 20.5q-80 0 -123 -32.5t-43 -92.5
q0 -48 26 -81t86 -62l121 -59q140 -68 195 -141t55 -187q0 -137 -98.5 -229.5t-245.5 -92.5q-84 0 -172.5 38t-179.5 112zM180 -426v100q78 -18 143.5 -28.5t104.5 -10.5q60 0 89 20.5t29 61.5q0 44 -32 65t-101 21q-20 0 -31.5 -0.5t-21.5 -0.5v198h78v-102h29
q109 0 166 -46t57 -135q0 -91 -64.5 -139.5t-185.5 -48.5q-51 0 -117 11.5t-143 33.5z" />
    <glyph glyph-name="Cacute" unicode="&#x106;" horiz-adv-x="1251" 
d="M1106 420q-26 -213 -148 -336t-307 -123q-243 0 -372 203t-129 586q0 382 129 584t372 202q174 0 292.5 -109.5t162.5 -312.5l-203 -47q-24 144 -86.5 214.5t-165.5 70.5q-149 0 -217.5 -144.5t-68.5 -457.5q0 -314 68.5 -458.5t217.5 -144.5q108 0 171 77.5t81 234.5z
M512 1646l204 348h201l-285 -348h-120z" />
    <glyph glyph-name="cacute" unicode="&#x107;" horiz-adv-x="909" 
d="M684 784q-20 77 -62.5 113.5t-111.5 36.5q-108 0 -164.5 -101.5t-56.5 -295.5q0 -201 57.5 -300.5t173.5 -99.5q84 0 128.5 49t54.5 150l167 -72q-26 -141 -118.5 -215t-241.5 -74q-194 0 -301 147t-107 415q0 267 107 413t301 146q120 0 205 -60t133 -178zM365 1206
l204 348h201l-285 -348h-120z" />
    <glyph glyph-name="Ccaron" unicode="&#x10c;" horiz-adv-x="1251" 
d="M1106 420q-26 -213 -148 -336t-307 -123q-243 0 -372 203t-129 586q0 382 129 584t372 202q174 0 292.5 -109.5t162.5 -312.5l-203 -47q-24 144 -86.5 214.5t-165.5 70.5q-149 0 -217.5 -144.5t-68.5 -457.5q0 -314 68.5 -458.5t217.5 -144.5q108 0 171 77.5t81 234.5z
M360 1994h121l174 -227l172 227h123l-197 -348h-196z" />
    <glyph glyph-name="ccaron" unicode="&#x10d;" horiz-adv-x="909" 
d="M684 784q-20 77 -62.5 113.5t-111.5 36.5q-108 0 -164.5 -101.5t-56.5 -295.5q0 -201 57.5 -300.5t173.5 -99.5q84 0 128.5 49t54.5 150l167 -72q-26 -141 -118.5 -215t-241.5 -74q-194 0 -301 147t-107 415q0 267 107 413t301 146q120 0 205 -60t133 -178zM213 1554h121
l174 -227l172 227h123l-197 -348h-196z" />
    <glyph glyph-name="dcroat" unicode="&#x111;" 
d="M487 127q114 0 189.5 114.5t75.5 295.5q0 180 -75.5 293.5t-189.5 113.5q-103 0 -154.5 -102t-51.5 -305q0 -205 51.5 -307.5t154.5 -102.5zM752 -25v215h-21q-83 -118 -150 -166.5t-145 -48.5q-154 0 -247 152.5t-93 409.5q0 256 93 407.5t247 151.5q75 0 142 -47.5
t153 -163.5h21v356h-283v105h283v124l180 66v-190h92v-105h-92v-1198z" />
    <glyph glyph-name="sfthyphen" unicode="&#xad;" horiz-adv-x="682" 
d="M76 469v160h530v-160h-530z" />
    <glyph glyph-name="periodcentered" unicode="&#x2219;" horiz-adv-x="569" 
d="M139 766q0 59 43.5 102t102.5 43t101 -42.5t42 -102.5t-42 -102.5t-101 -42.5t-102.5 43.5t-43.5 101.5z" />
    <glyph glyph-name="euro" horiz-adv-x="1139" 
d="M797 569h-389q19 -224 90 -334t196 -110q92 0 158 77.5t86 205.5l195 -39q-1 -2 -3 -9q-116 -399 -436 -399q-209 0 -336 156t-157 452h-172l32 113h132v68v52.5t1 33.5h-163l30 112h142q32 286 158 437t333 151q156 0 271 -107.5t161 -277.5l-190 -47q-25 122 -88 196
t-154 74q-124 0 -194 -104.5t-90 -321.5h495l-33 -112l-469 -1q-1 -14 -1.5 -31t-0.5 -54v-68h428z" />
    <glyph glyph-name="euro" unicode="&#x20ac;" horiz-adv-x="1139" 
d="M797 569h-389q19 -224 90 -334t196 -110q92 0 158 77.5t86 205.5l195 -39q-1 -2 -3 -9q-116 -399 -436 -399q-209 0 -336 156t-157 452h-172l32 113h132v68v52.5t1 33.5h-163l30 112h142q32 286 158 437t333 151q156 0 271 -107.5t161 -277.5l-190 -47q-25 122 -88 196
t-154 74q-124 0 -194 -104.5t-90 -321.5h495l-33 -112l-469 -1q-1 -14 -1.5 -31t-0.5 -54v-68h428z" />
    </font>
</defs>
</svg>
